<svg width="194" height="195" viewBox="0 0 194 195" fill="none" xmlns="http://www.w3.org/2000/svg">
<path d="M154.283 123.407C154.462 123.197 154.644 122.99 154.81 122.772C154.916 122.699 154.998 122.578 155.04 122.445C155.882 121.275 156.534 119.986 156.99 118.618C157.047 118.513 157.082 118.4 157.091 118.286C158.449 113.878 157.837 108.643 154.986 103.5C149.547 93.6902 139.608 87.5689 129.405 85.2892C118.944 82.9429 107.114 82.4047 97.8398 85.5328C90.4189 88.0363 79.8524 93.7918 81.9073 103.729C81.6383 103.723 81.4047 103.714 81.2727 103.721C79.0159 103.824 76.6327 104.131 74.299 103.813C73.174 103.66 51.6073 101.376 47.3266 102.607C45.6958 103.076 44.0737 103.678 42.5768 104.459C42.6486 104.348 42.7191 104.238 42.79 104.131C43.8267 102.589 45.1276 100.524 46.8873 99.6966C50.8119 97.845 54.3701 95.2631 58.4494 93.6686C60.2865 92.9526 61.8627 91.9964 63.316 90.7504C64.0745 90.1021 67.0668 87.6882 67.9219 87.2212C70.9172 85.6012 77.0529 82.6654 77.0551 82.6601C77.5395 82.4157 78.0004 82.1461 78.4521 81.8676C78.4923 81.8601 78.533 81.8457 78.5772 81.8372C78.6651 81.8173 78.7326 81.7506 78.7778 81.6576C81.7998 79.6948 84.0918 76.9698 86.1209 74.0223C86.2783 73.9523 86.4011 73.7635 86.4435 73.5652C87.7136 71.6805 88.8864 69.714 90.0774 67.7968C90.6157 66.9282 91.1269 66.0382 91.6319 65.1423C91.7253 65.0642 91.7983 64.9516 91.843 64.8313C92.691 63.6981 93.4755 62.5378 94.1257 61.189C94.959 59.4654 95.9309 57.9076 96.9799 56.3781C97.2343 56.4581 97.5033 56.0224 97.4743 55.7063C98.0942 54.8677 98.7248 54.0395 99.3721 53.2251C99.525 53.1751 99.6449 53.0079 99.6926 52.8196C100.486 51.8237 101.289 50.8382 102.095 49.8665C102.581 49.28 103.098 48.7246 103.628 48.1826C105.265 46.7528 106.934 45.3421 108.634 43.9804C108.761 44.0033 108.886 43.8829 108.982 43.7164C110.647 42.5536 112.382 41.4676 114.156 40.4517C114.168 40.4554 114.179 40.4618 114.192 40.467C114.396 40.5468 114.584 40.3799 114.674 40.1637C116.004 39.4092 117.345 38.6815 118.676 37.9694C121.692 36.3554 124.954 35.3442 128.123 33.9953C129.008 33.6153 129.948 33.045 130.927 32.4493C131.019 32.4188 131.117 32.3889 131.211 32.3571C133.361 31.6605 135.469 30.8336 137.729 30.3849C137.757 30.3845 137.784 30.3936 137.812 30.3986C137.876 30.4095 137.933 30.3815 137.986 30.3355C138.034 30.3259 138.09 30.3143 138.139 30.3047C138.485 30.2464 138.756 29.2954 138.291 29.3464C138.281 29.3265 138.274 29.3122 138.254 29.3051L138.072 29.2394C138.022 29.223 137.969 29.2348 137.924 29.2625C137.874 29.145 137.727 29.235 137.596 29.3823C137.408 29.3542 137.22 29.3206 137.032 29.2926C136.945 29.2431 136.864 29.2063 136.805 29.1959C136.587 29.1625 136.384 29.1714 136.173 29.1578C130.363 28.2654 124.521 27.1126 118.711 26.171C114.637 25.5102 110.496 24.6173 106.413 24.1603C106.441 24.0044 106.418 23.9138 106.273 24.0421C106.24 24.0707 106.207 24.102 106.175 24.132C104.572 23.9595 102.975 23.85 101.4 23.8597C96.5718 23.8953 92.1236 25.0524 87.9959 26.8297C87.0465 27.2396 86.1028 27.6746 85.1653 28.1156C84.9713 28.0598 84.7371 28.1288 84.6525 28.3399C84.6507 28.348 84.6486 28.3532 84.6453 28.3598C81.4686 29.8922 78.4143 31.6504 75.7204 33.8085C74.1307 35.0813 72.7238 36.5112 71.406 38.025C71.2123 38.0769 71.0127 38.2648 70.9807 38.4926C69.4344 40.3323 68.0357 42.3098 66.7428 44.3849C64.1048 48.6015 61.2289 52.6687 58.9842 57.1584C56.7167 61.6871 55.1007 66.6236 53.4917 71.5158C51.8438 76.507 50.1435 81.472 48.5506 86.4896C46.7915 92.0252 44.9068 97.4929 42.0923 102.433C42.0499 102.514 42.0208 102.581 42.0061 102.642C40.8957 104.22 39.9877 106.24 38.3915 107.189C38.275 107.257 38.1836 107.469 38.1446 107.673C37.7634 108.039 37.1534 108.367 36.8455 108.729C35.9897 109.725 35.3482 111.136 34.7082 112.304C33.4285 114.619 28.7742 128.097 27.1688 131.11C27.0557 131.289 26.942 131.462 26.8573 131.581C26.884 131.575 26.9297 131.521 26.9782 131.468C26.4307 132.189 27.6923 133.248 28.1402 133.298C27.7553 144.132 29.3257 136.805 29.6136 136.739C30.2237 135.725 33.2939 124.778 34.9405 118.867C35.201 118.487 35.4468 118.121 35.5015 118.04C37.0681 115.697 38.6686 113.4 40.1303 110.98C40.8733 109.746 41.6591 108.538 42.6503 107.575C44.2654 106.507 46.1393 105.79 48.1772 105.583C48.8939 105.51 49.6372 105.489 50.3713 105.459C52.2135 105.52 54.088 105.704 55.9109 105.775C59.0973 105.898 62.2502 105.898 65.4553 106.214C68.6155 106.522 71.8169 107.179 74.9889 107.749C77.4744 108.195 79.7459 108.695 82.0693 109.485C82.2186 109.951 82.3666 110.419 82.5186 110.886C83.1913 116.12 87.0769 121.446 91.6647 124.677C91.6844 124.693 91.7047 124.703 91.7269 124.717C91.7673 124.747 91.8044 124.783 91.8451 124.815C92.3822 125.205 92.9415 125.55 93.4965 125.907C93.5002 125.915 93.5009 125.92 93.5043 125.926C93.5049 125.932 93.5187 125.921 93.5218 125.924C97.4488 128.435 101.79 130.073 106.142 131.059C107.31 131.398 108.481 131.727 109.653 132.053C117.218 134.15 124.284 133.385 131.156 131.897C132.338 131.76 133.512 131.606 134.675 131.423C135.723 131.257 136.785 131.073 137.844 130.877C137.899 130.886 137.953 130.873 138.004 130.845C142.188 130.063 146.373 128.974 149.885 126.965C150.36 126.774 150.826 126.564 151.266 126.301C152.428 125.606 153.483 124.561 154.283 123.407ZM51.2037 95.5089C50.8103 95.7364 50.4161 95.9802 50.0216 96.2213C49.7978 95.6679 49.6195 95.0242 49.6689 94.4664C49.893 94.1606 50.0992 93.8424 50.3096 93.5259C50.3333 93.6806 50.4149 93.8157 50.5909 93.8809C50.7281 93.9306 50.8628 93.9828 50.9988 94.0338C51.1223 94.2924 51.2546 94.5449 51.3734 94.799C51.5963 95.2636 52.0663 94.9198 52.1441 94.5336C52.2808 94.6023 52.413 94.6788 52.5442 94.7594C52.0973 95.0083 51.6488 95.2558 51.2037 95.5089ZM55.9106 92.9319C55.1086 93.3502 54.3124 93.7717 53.5234 94.2074C52.9202 93.7558 52.2611 93.4332 51.585 93.1651C51.501 92.9739 51.4243 92.7875 51.3808 92.6038C51.3349 92.4226 51.2933 92.2432 51.2513 92.061C51.5713 91.5232 51.874 90.9785 52.1773 90.4271C52.1888 90.4553 52.1951 90.4859 52.2159 90.5108C52.3361 90.6491 52.4862 90.738 52.625 90.8479C52.7345 91.2907 52.9222 91.7116 53.0516 92.1493C53.1998 92.6418 53.2316 93.1218 53.424 93.6058C53.6581 94.1887 54.334 93.4775 54.1551 93.0384C54.0157 92.6789 53.9989 92.2915 53.8895 91.9195C53.8434 91.7725 53.7826 91.616 53.7234 91.461C54.3134 91.6728 54.9331 91.8107 55.4819 91.9972C55.8163 92.118 56.1561 91.1673 55.9451 91.095C55.1281 90.8151 54.1526 90.631 53.3604 90.1431C53.2828 89.6456 53.2556 89.1578 53.2643 88.673C54.1653 88.9927 55.0697 89.3058 55.9669 89.6389C56.1144 90.3236 56.313 90.9772 56.7689 91.6305C57.0909 92.0885 57.6781 91.2744 57.3895 90.8684C57.2018 90.5989 57.0737 90.3236 56.971 90.0436C57.742 90.3742 58.506 90.7275 59.2694 91.0752C58.1518 91.6961 57.0316 92.3167 55.9106 92.9319ZM61.8983 74.9759C61.9908 74.8432 62.0549 74.6904 62.049 74.5821C62.0423 74.4902 62.0254 74.4274 61.9928 74.3715C62.0775 74.219 62.1696 74.0713 62.2512 73.9158C62.7364 74.2361 63.2379 74.5332 63.741 74.8318C64.1588 75.8366 64.6971 76.8187 65.3157 77.7271C64.3183 77.2165 63.0857 76.5444 61.974 76.1675C61.9064 75.7554 61.8702 75.3541 61.8983 74.9759ZM61.2576 75.9751C61.2044 75.9652 61.1537 75.9527 61.1021 75.9443C61.1455 75.8716 61.1868 75.7918 61.2311 75.7151C61.2348 75.8041 61.2488 75.8884 61.2576 75.9751ZM82.3345 43.126C82.4957 42.984 82.656 42.8461 82.8176 42.7069C82.8495 42.6986 82.8801 42.6917 82.9122 42.6739C83.0754 42.7462 83.2355 42.8278 83.3953 42.9067C83.5511 43.2894 83.7161 43.6687 83.8101 44.0721C83.9331 44.6184 84.0258 45.1622 84.1196 45.7047C83.2187 45.0945 82.3702 44.4887 81.4157 44.0636C81.413 44.0293 81.4107 43.9977 81.404 43.9644C81.5554 43.8203 81.7148 43.6863 81.8693 43.5452C82.0814 43.5452 82.2989 43.3821 82.3345 43.126ZM109.316 32.921C109.321 33.1082 109.306 33.2897 109.315 33.4814C109.326 33.736 109.354 33.988 109.391 34.2434C108.763 33.9193 108.134 33.606 107.502 33.298C107.45 32.8204 107.412 32.3467 107.428 31.8856C107.437 31.87 107.441 31.854 107.447 31.8381C107.492 31.8323 107.535 31.8278 107.578 31.8205C107.568 31.9233 107.578 32.0428 107.674 32.1191C108.158 32.506 108.739 32.7211 109.316 32.921ZM108.927 31.6486C109.088 31.6307 109.247 31.6181 109.405 31.6028C109.395 31.6783 109.379 31.7533 109.37 31.8276C109.202 31.7603 109.059 31.7006 108.927 31.6486ZM118.016 32.5801C117.097 32.2235 116.159 31.8992 115.229 31.5567C115.226 31.4827 115.234 31.4098 115.235 31.3376C115.811 31.3164 116.386 31.2841 116.955 31.2336C117.325 31.2006 117.707 31.1699 118.088 31.1405L118.046 31.3661C118.036 31.4198 118.039 31.4569 118.05 31.4946C118.015 31.8463 118.015 32.2104 118.016 32.5801ZM118.592 31.4596C119.14 31.6502 119.69 31.8381 120.24 32.0206C120.272 32.5525 120.277 33.0794 120.234 33.5967C119.709 33.3113 119.169 33.0573 118.619 32.8284C118.608 32.6979 118.597 32.5674 118.591 32.4346C118.58 32.0968 118.579 31.7763 118.592 31.4596ZM114.59 32.3964C114.638 32.9868 114.724 33.5833 114.794 34.1756C114.031 33.8401 113.243 33.4931 112.487 33.1624C112.456 32.8666 112.431 32.574 112.426 32.283C112.516 32.1065 112.554 31.8997 112.472 31.7714L112.391 31.6391C112.142 31.2568 111.791 32.1179 111.784 32.2578C111.771 32.4559 111.787 32.6591 111.796 32.8603C111.216 32.6071 110.674 32.3761 110.19 32.1719C110.195 31.954 110.194 31.7357 110.225 31.5215C110.271 31.5172 110.316 31.5101 110.363 31.5085C111.006 31.4588 111.654 31.4341 112.304 31.4136C113.049 31.787 113.812 32.1074 114.59 32.3964ZM111.893 33.9922C111.962 34.5354 112.026 35.0754 112.048 35.6119C111.486 35.3247 110.927 35.0377 110.367 34.748C110.323 34.2533 110.272 33.7554 110.227 33.2619C110.254 33.2738 110.285 33.2818 110.313 33.2964C110.837 33.5272 111.364 33.761 111.893 33.9922ZM81.3591 52.2787C81.1501 51.7811 80.9328 51.2828 80.6919 50.7935C80.3935 50.1874 79.7578 49.133 79.5315 48.2794C80.0477 48.6541 80.5221 49.0812 81.12 49.4178C81.3181 49.5312 81.5222 49.6261 81.7184 49.7353C81.7979 50.2957 81.879 50.8576 81.9639 51.428C82.0315 51.8523 82.1139 52.2738 82.2282 52.6871C81.9385 52.551 81.6464 52.4174 81.3591 52.2787ZM81.9161 56.2138C81.0542 55.7269 80.1787 55.217 79.2902 54.736C79.1702 54.3905 79.0514 54.0436 78.9348 53.6915C78.7428 53.1176 78.4491 52.4233 78.1675 51.7164C79.064 52.183 79.9568 52.6657 80.8539 53.1379C81.3071 54.1524 81.7107 55.1996 81.9161 56.2138ZM99.2062 40.4046C98.9039 40.2661 98.8967 39.8904 98.9908 39.4687C101.532 40.728 104.056 42.0608 106.624 43.1749C105.963 43.6855 105.321 44.2167 104.702 44.7703C102.229 43.761 99.8024 42.5318 97.3393 41.5778C97.313 40.5854 97.3219 39.6247 97.3581 38.6758C97.7509 38.8628 98.1457 39.0541 98.5391 39.2467C98.5331 39.2653 98.5311 39.2829 98.5275 39.2989C98.3753 39.7621 97.9682 40.9554 98.7445 41.3083C99.0859 41.4652 99.4882 40.5333 99.2062 40.4046ZM90.8336 47.3153C90.6723 47.1299 90.5428 46.9363 90.4264 46.7384C90.4738 46.7573 90.5191 46.7816 90.5662 46.7978C93.6118 47.993 96.6815 49.1479 99.7414 50.2665C99.3088 50.8003 98.8731 51.3311 98.4451 51.8694C95.5026 50.7715 92.6062 49.5425 89.6702 48.407C89.0825 48.1804 88.479 47.9361 87.8743 47.6808C87.6279 46.7955 87.4296 45.9005 87.1878 45.0537C87.8576 45.455 88.5334 45.8376 89.2201 46.1844C89.3972 46.8416 89.69 47.4812 90.2007 48.0655C90.6044 48.5317 91.1897 47.7134 90.8336 47.3153ZM103.863 45.551C103.444 45.9536 103.043 46.3714 102.652 46.7996C101.921 46.4956 100.945 46.325 100.473 46.149C98.8409 45.528 97.27 44.7484 95.6711 44.0101C95.3415 43.8597 95.0143 43.719 94.6853 43.5742C94.763 43.432 94.8155 43.285 94.7962 43.1907C94.6823 42.641 94.4346 42.0815 94.2946 41.5311C95.1561 41.8515 96.0292 42.1321 96.8758 42.5236C99.1935 43.5909 101.515 44.6298 103.863 45.551ZM97.4122 37.5756C97.4541 36.9544 97.5145 36.339 97.5924 35.7209C98.1053 35.9753 98.6167 36.2282 99.1297 36.4826C99.0434 37.0755 98.9331 37.6622 98.8004 38.2444C98.3373 38.0187 97.8773 37.796 97.4122 37.5756ZM96.5667 41.2675C95.7662 40.9767 94.9853 40.6439 94.2109 40.2952C94.2267 39.6269 94.2845 38.9771 94.3581 38.3109C94.3901 38.0245 94.441 37.7123 94.4927 37.3961C95.199 37.6886 95.9005 37.9984 96.6008 38.3217C96.5542 39.2875 96.5492 40.2691 96.5667 41.2675ZM93.6857 41.2986C93.7714 41.9577 93.9227 42.6046 94.082 43.308C93.7748 43.1745 93.4682 43.0343 93.1617 42.9063C92.9637 42.1996 92.745 41.4802 92.5669 40.7683C92.595 40.7857 92.6254 40.8005 92.6544 40.8139C92.9931 40.995 93.3388 41.1536 93.6857 41.2986ZM92.5356 43.7266C92.6695 44.2834 92.7864 44.836 92.8435 45.3795C92.9089 46.041 93.6642 45.4579 93.6204 45.0273C93.5891 44.7383 93.5345 44.4364 93.4716 44.1338C94.0499 44.3855 94.627 44.6385 95.2067 44.9135C96.7934 45.6645 98.377 46.4587 100.009 47.0457C100.279 47.1434 101.183 47.361 101.916 47.6285C101.806 47.7611 101.682 47.8802 101.575 48.0158C101.194 48.4899 100.806 48.9647 100.42 49.4383C97.1118 48.2334 93.5042 47.1588 90.2937 45.5625C90.1671 45.4987 90.0479 45.4273 89.9226 45.3622C89.7816 44.6521 89.7655 43.9211 89.7204 43.2232C89.7065 43.012 89.6563 42.7827 89.6175 42.5571C90.5907 42.932 91.5652 43.3179 92.5356 43.7266ZM88.9129 43.9437C88.9335 44.2468 88.9575 44.5557 88.9863 44.8596C88.2397 44.4451 87.4982 44.016 86.7573 43.5801C86.5446 42.8299 86.3742 42.0791 86.3034 41.3367C87.0805 41.6147 87.8539 41.8964 88.6237 42.1819C88.7597 42.7921 88.8791 43.3885 88.9129 43.9437ZM86.1899 44.4572C86.3542 45.0288 86.5256 45.6024 86.6845 46.1735C86.7865 46.5408 86.8815 46.9183 86.9753 47.2972C86.2694 46.9734 85.5833 46.6076 84.9218 46.2071C84.8916 46.0436 84.8535 45.8822 84.827 45.7149C84.7019 44.9421 84.5557 44.1756 84.3732 43.4034C84.9834 43.7396 85.586 44.0929 86.1899 44.4572ZM84.3413 46.9617C84.5877 48.2548 84.962 49.4714 85.7038 50.6479C84.5714 50.1069 83.4421 49.5567 82.3415 48.9365C82.191 47.7142 81.9694 46.5159 81.6818 45.3147C82.5847 45.7901 83.4595 46.3872 84.3413 46.9617ZM82.4895 50.1491C82.8924 50.3629 83.2876 50.5938 83.6983 50.7933C85.4268 51.6448 87.1591 52.5511 88.9294 53.2574C91.1167 54.1351 93.3156 55.0069 95.5185 55.8313C95.4768 55.896 95.4305 55.9563 95.3873 56.0195C95.03 56.565 94.6945 57.122 94.3566 57.6814C91.3208 56.5935 88.336 55.3571 85.3265 54.109C84.6547 53.8304 83.9946 53.5118 83.3336 53.1972C82.7611 52.2845 82.5981 51.1893 82.4895 50.1491ZM87.4118 51.4649C87.0824 51.3049 86.7493 51.1488 86.4171 50.9886C86.5693 50.7818 86.6759 50.4894 86.5734 50.3512C85.8918 49.4307 85.4953 48.4782 85.2191 47.4908C85.4541 47.6278 85.685 47.7754 85.9229 47.8908C86.3786 48.1118 86.8381 48.3072 87.2955 48.5079C87.5128 49.2626 87.7704 50.0097 88.1472 50.7014C88.3291 51.0263 88.9008 50.2437 88.7201 49.9053C88.5524 49.5966 88.4181 49.2689 88.2933 48.9407C88.8845 49.1853 89.4759 49.4204 90.0774 49.6482C92.6669 50.6291 95.2122 51.7237 97.7983 52.7112C97.2144 53.46 96.6499 54.2228 96.1061 54.9982C93.1976 53.9455 90.2022 52.8282 87.4118 51.4649ZM107.57 42.466C104.789 41.2943 102.063 39.8546 99.3189 38.4993C99.422 38.2474 99.5131 38.0327 99.5485 37.9034C99.6476 37.5476 99.6877 37.1663 99.7403 36.7875C100.715 37.2689 101.69 37.7435 102.669 38.2143C102.671 38.3985 102.682 38.5809 102.661 38.7633C102.612 39.1942 103.013 38.7641 103.177 38.4615C105.206 39.435 107.242 40.3736 109.282 41.2676C108.698 41.655 108.131 42.0589 107.57 42.466ZM103.742 37.5965C103.683 37.5683 103.517 37.4807 103.285 37.3617C103.273 36.6542 103.185 35.9418 103.096 35.2305C103.361 35.3701 103.624 35.5094 103.881 35.636C104.202 35.7952 104.524 35.9477 104.843 36.1095C104.958 36.8187 105.058 37.5241 105.024 38.2114C104.597 38.0037 104.156 37.8112 103.742 37.5965ZM105.332 35.1958C105.327 35.1517 105.321 35.1117 105.314 35.0661C105.242 34.4791 105.249 33.9314 105.292 33.3922C105.873 33.6482 106.453 33.9137 107.025 34.1935C107.107 34.8592 107.202 35.5272 107.249 36.1858C107.094 36.1087 106.936 36.0313 106.782 35.9557C106.309 35.7183 105.823 35.4579 105.332 35.1958ZM106.931 33.0237C106.476 32.8082 106.019 32.6035 105.558 32.4039C105.617 32.312 105.67 32.2169 105.701 32.1295C106.092 32.0559 106.482 31.9835 106.877 31.9212C106.879 31.9678 106.896 31.9938 106.924 32.0016C106.923 32.0124 106.924 32.0234 106.923 32.037L106.919 32.0407C106.92 32.049 106.922 32.0532 106.92 32.0613C106.895 32.3783 106.914 32.7017 106.931 33.0237ZM104.802 33.182C104.698 33.7256 104.638 34.2824 104.679 34.8478C104.11 34.5409 103.536 34.2446 102.96 33.9535C102.941 33.6764 102.935 33.3977 102.94 33.1212C103.046 32.9964 103.132 32.851 103.215 32.6943C103.524 32.6125 103.836 32.5349 104.15 32.4603C104.074 32.6626 104.062 32.869 104.176 32.9126C104.385 32.9983 104.592 33.0934 104.802 33.182ZM102.321 33.6435C102.011 33.4975 101.706 33.3682 101.396 33.24C101.725 33.1325 102.05 33.0247 102.383 32.9272C102.351 33.1646 102.332 33.403 102.321 33.6435ZM102.33 34.8295C102.363 35.5523 102.496 36.2808 102.592 37.0063C101.835 36.6209 100.824 36.112 99.8807 35.6537C99.9093 35.3151 99.9407 34.9768 99.9727 34.644C100.089 34.5051 100.186 34.34 100.197 34.2427C100.205 34.1411 100.214 34.0669 100.217 33.9989C100.311 34.0191 100.404 34.0092 100.483 33.9557C101.094 34.198 101.717 34.5093 102.33 34.8295ZM99.2846 35.3677C98.7006 35.091 98.1906 34.8614 97.8256 34.7135C98.3654 34.4396 98.9213 34.1862 99.4863 33.9512C99.4109 34.4277 99.3456 34.8969 99.2846 35.3677ZM96.6836 37.2444C95.998 36.9305 95.3061 36.6324 94.6134 36.3507C94.6126 36.3206 94.6189 36.2925 94.6193 36.2611C95.321 35.9436 96.0142 35.613 96.6994 35.2723C96.7053 35.2755 96.7047 35.2823 96.7078 35.2852C96.7687 35.3149 96.8313 35.3461 96.8922 35.3757C96.8039 35.9984 96.7374 36.6202 96.6836 37.2444ZM94.0244 37.2068C93.9674 38.1308 93.7087 39.0966 93.6406 39.9023C93.6366 39.9497 93.6439 39.9885 93.6411 40.0347C93.1984 39.8311 92.7502 39.6272 92.3097 39.4184C92.2703 39.0946 92.2465 38.7762 92.2535 38.4631C92.4151 38.3361 92.5399 38.1052 92.492 37.9075C92.443 37.677 92.3876 37.5551 92.2614 37.3426C92.2549 37.3339 92.2463 37.3305 92.241 37.3205C92.5689 37.1761 92.8952 37.0303 93.2255 36.8834C93.4947 36.9851 93.7585 37.0986 94.0244 37.2068ZM91.5247 39.0497C91.009 38.8074 90.4864 38.5753 89.9628 38.3473C90.508 38.0957 91.0535 37.8469 91.6036 37.6025C91.5973 37.6183 91.5897 37.6354 91.587 37.6475C91.5026 38.1055 91.4975 38.5742 91.5247 39.0497ZM91.6828 40.3136C91.8236 41.0456 92.0212 41.7836 92.2243 42.5221C91.2768 42.1331 90.3254 41.7573 89.3716 41.3963C89.172 40.5831 88.9828 39.7653 88.9697 39.025C89.8877 39.4198 90.791 39.8515 91.6828 40.3136ZM88.3661 41.0147C87.6778 40.7592 86.9859 40.5075 86.2904 40.2596C86.8877 39.9046 87.4952 39.5669 88.1146 39.2479C88.1297 39.8069 88.2343 40.4063 88.3661 41.0147ZM85.8393 43.0585C85.21 42.6989 84.576 42.3688 83.9359 42.0574C83.9109 41.9966 83.8833 41.9357 83.8583 41.8749L83.858 41.8722C84.3053 41.5333 84.7653 41.2091 85.2365 40.8981C85.3633 40.8133 85.497 40.7399 85.6273 40.6608C85.6156 40.7008 85.6087 40.7357 85.6073 40.7587C85.5586 41.5198 85.6735 42.2877 85.8393 43.0585ZM80.5656 44.9579C80.6325 44.9908 80.7003 44.9978 80.7623 44.9894C80.7663 45.0006 80.7661 45.0102 80.7686 45.0199C80.7016 45.3116 80.7989 45.3593 80.9268 45.2951C81.1869 46.3548 81.3688 47.3902 81.525 48.4275C80.8625 47.9723 80.2311 47.4789 79.5439 47.0925C79.5262 47.0583 79.5227 47.028 79.4896 46.9911C79.4135 46.9029 79.3369 46.9142 79.2622 46.9543C79.1196 46.8823 78.9825 46.7986 78.8308 46.7422C78.8265 46.7405 78.8176 46.7343 78.8117 46.7311C79.3445 46.1061 79.8954 45.4963 80.4653 44.9072C80.5 44.9238 80.5333 44.9388 80.5656 44.9579ZM78.3319 47.6319C78.5097 47.6891 78.6579 47.7738 78.8149 47.8524C78.6537 48.8904 79.2654 49.8337 79.8234 50.9715C79.944 51.2176 80.0726 51.4739 80.1976 51.734C80.1197 51.7001 80.0437 51.6583 79.967 51.6232C79.1984 51.2778 78.4567 50.8583 77.7156 50.4442C77.5678 49.979 77.4499 49.5232 77.4136 49.1096C77.513 48.9884 77.5845 48.8403 77.5816 48.7227C77.5808 48.6804 77.5777 48.631 77.5777 48.5847C77.5785 48.5097 77.5253 48.4411 77.4715 48.3793C77.7033 48.081 77.9378 47.7829 78.1785 47.4908C78.2074 47.5505 78.2547 47.6036 78.3319 47.6319ZM76.7559 49.9287C76.6435 49.8688 76.5302 49.8129 76.4157 49.7583C76.5031 49.6401 76.5908 49.5248 76.6785 49.4094C76.6927 49.577 76.7226 49.7499 76.7559 49.9287ZM77.092 51.1693C77.4368 52.1939 77.9036 53.2313 78.2031 54.173C77.7743 53.9706 77.3424 53.7775 76.9065 53.6196C76.7579 53.5662 76.4955 53.476 76.2035 53.367C76.1017 52.6288 75.8993 51.6053 75.4438 51.1061C75.5695 50.9298 75.6918 50.7477 75.8218 50.5731C76.245 50.7628 76.6708 50.9621 77.092 51.1693ZM75.2154 52.9117C74.9067 52.7304 74.6786 52.5244 74.6005 52.3023C74.686 52.18 74.7743 52.0578 74.8586 51.9367C74.9852 52.1055 75.1058 52.4566 75.2154 52.9117ZM75.458 54.1254C75.7159 55.6446 75.8967 57.4041 75.9699 57.7239C75.9844 57.7893 76.0038 57.8495 76.018 57.9121C75.3418 57.5731 74.6686 57.2124 74.0131 56.7933C73.9053 56.7256 73.794 56.6522 73.68 56.5785C73.484 55.9006 73.2849 55.2197 73.0803 54.5384C73.3982 54.0645 73.716 53.5906 74.0342 53.1195C74.3361 53.5922 74.927 53.8927 75.458 54.1254ZM76.3646 59.2191C76.6855 60.2962 77.0816 61.3141 77.5975 62.4089C76.7659 61.9927 75.9324 61.5723 75.0979 61.1436C74.9444 60.6534 74.795 60.1621 74.6287 59.6667C74.4592 59.1561 74.3115 58.6445 74.1586 58.1353C74.3821 58.2904 74.6024 58.4303 74.8157 58.5218C75.3337 58.7494 75.8499 58.985 76.3646 59.2191ZM72.6881 56.0098C72.5289 55.9364 72.3717 55.8796 72.2131 55.8336C72.3107 55.6863 72.4074 55.543 72.5054 55.3985C72.5662 55.6013 72.627 55.8042 72.6881 56.0098ZM73.102 57.377C73.4291 58.46 73.7549 59.5444 74.0836 60.6289C73.0533 60.106 72.0186 59.6155 70.9813 59.1617C70.8497 58.8806 70.7056 58.5971 70.5559 58.3131C70.9075 57.7889 71.2592 57.2647 71.6108 56.7405C72.1006 56.7624 72.6044 57.0325 73.102 57.377ZM69.8699 59.7763C70.0918 59.8713 70.3085 59.9808 70.5271 60.0824C70.7689 60.5677 70.9764 61.0638 71.1101 61.596C71.2408 62.1375 71.3494 62.6772 71.4592 63.2156C71.3998 63.1874 71.3428 63.1567 71.2834 63.1285C70.6267 62.8157 69.7894 62.5845 69.1944 62.1214C68.6371 61.6873 68.6259 61.6031 68.4693 61.4591C68.6462 61.1589 68.8146 60.8457 69.0127 60.5636C69.171 60.3382 69.3242 60.1056 69.4822 59.8774C69.5686 60.0074 69.7314 59.9256 69.8699 59.7763ZM67.8971 63.2032C68.2112 63.9196 68.6118 64.627 68.9333 65.2895C69.1151 65.6607 69.2923 66.0274 69.4735 66.3931C68.9193 66.1134 68.3659 65.8297 67.8138 65.5447C67.6554 65.1864 67.4794 64.8307 67.3811 64.4596C67.3838 64.4476 67.3865 64.4355 67.3867 64.426C67.405 64.2093 67.4041 64.062 67.2363 63.8678C67.2344 63.8636 67.2289 63.8631 67.2227 63.8572C67.2902 63.7101 67.3612 63.5687 67.4315 63.4219C67.5592 63.5649 67.7603 63.4249 67.8971 63.2032ZM66.5472 66.0386C66.7674 66.1539 66.9869 66.2637 67.2052 66.3747C67.2078 66.3845 67.2127 66.3917 67.2152 66.4015C67.5608 67.3974 67.7766 68.3948 68.0096 69.399C67.2477 69.0064 66.5008 68.5891 65.7962 68.1127C65.702 67.9166 65.6151 67.7129 65.4873 67.5453C65.4835 67.5368 65.4756 67.5389 65.4678 67.5315C65.5531 67.3722 65.6252 67.205 65.7104 67.0458C65.8922 66.7064 66.0592 66.3454 66.2307 65.9888C66.3213 66.096 66.4371 66.103 66.5472 66.0386ZM67.1237 72.6538C66.9545 72.1923 66.7877 71.7282 66.6584 71.2687C66.5139 70.7847 66.4192 70.1998 66.2913 69.6122C66.9503 70.003 67.6281 70.3681 68.319 70.7042C68.5313 71.5908 68.7798 72.61 69.288 73.4409C68.5814 73.2044 67.8316 72.96 67.1237 72.6538ZM66.8373 74.3619C67.0606 74.8416 67.3595 75.2772 67.6027 75.7395C66.5082 75.2181 65.4352 74.6343 64.3773 74.0164C64.1115 73.3272 63.9163 72.633 63.8001 71.9468C64.6113 72.0721 65.5987 73.0687 66.3292 73.3578C66.3708 73.3735 66.4151 73.3895 66.4609 73.407C66.5725 73.7273 66.6923 74.0483 66.8373 74.3619ZM65.0947 68.8503C65.1818 69.65 65.7608 71.3625 65.9946 72.0477C65.9693 72.0305 65.9392 72.0185 65.9154 72.0028C65.3114 71.5676 64.4853 70.8491 63.7926 71.0215C63.7583 71.0322 63.728 71.0542 63.6966 71.0775C64.0806 70.2819 64.4841 69.5001 64.8743 68.7105C64.9462 68.7629 65.0247 68.8022 65.0947 68.8503ZM63.2111 73.3158C63.1104 73.25 63.0041 73.1961 62.9033 73.1304C62.8899 73.0856 62.8642 73.0535 62.8242 73.0392L62.754 73.0129C62.8429 72.8376 62.9272 72.6578 63.0145 72.481C63.0674 72.7568 63.133 73.0351 63.2111 73.3158ZM61.486 77.1385C61.6121 77.6169 61.7636 78.1028 61.8816 78.6174C62.0641 79.4019 62.2448 80.1821 62.4042 80.9565C61.8891 80.7074 61.299 80.4247 60.7291 80.1982C60.4921 79.4391 60.2805 78.6753 60.2167 77.9812C60.2578 77.877 60.2762 77.7776 60.2528 77.7061C60.2339 77.6267 60.2097 77.5497 60.1863 77.4782C60.1778 77.4529 60.167 77.4425 60.1583 77.4267C60.2669 77.2558 60.3797 77.0866 60.4871 76.9169C60.8005 76.9173 61.1396 77.0085 61.486 77.1385ZM61.7201 83.4836C61.6099 83.0816 61.4951 82.6751 61.3793 82.2603C61.3224 82.0564 61.2502 81.8376 61.185 81.6208C61.6684 81.81 62.1525 82.0047 62.635 82.1979C62.7218 82.7507 62.786 83.3085 62.8241 83.8654C62.4538 83.7416 62.0877 83.6072 61.7201 83.4836ZM61.2446 84.3862C61.3612 84.8774 61.4185 85.365 61.4356 85.8479C60.6918 85.5509 59.9469 85.2552 59.2007 84.9607C59.0941 84.4963 58.9964 84.038 58.8957 83.5768C59.6792 83.8512 60.4605 84.1185 61.2446 84.3862ZM59.8631 79.8978C59.4736 79.7969 59.1329 79.7629 58.8845 79.8375C58.5955 79.9292 58.4041 80.8038 58.5242 80.7661C58.9124 80.6459 59.6813 80.9818 60.2559 81.2373C60.4742 81.8953 60.7103 82.5534 60.92 83.2079C60.1657 82.9496 59.4094 82.6965 58.6554 82.4287C58.5558 81.8148 58.495 81.0064 58.2008 80.3776C58.6748 79.6836 59.1371 78.9831 59.6021 78.2829C59.6278 78.8156 59.7254 79.3543 59.8631 79.8978ZM57.9932 82.3254C57.7691 82.5262 57.5917 83.1237 57.7104 83.1678L57.8649 83.2244C57.8704 83.2248 57.8704 83.2248 57.8747 83.2265C57.959 83.2568 58.0457 83.2845 58.13 83.3148C58.1699 83.6073 58.2062 83.8817 58.2586 84.1057C58.2995 84.2796 58.3408 84.4563 58.3818 84.6302C57.5882 84.3168 56.7953 84.0089 56.0011 83.7022C56.5473 82.8533 57.0977 82.0062 57.6632 81.1712C57.8203 81.5063 57.9213 81.9116 57.9932 82.3254ZM58.6566 85.8384C58.7547 86.2776 58.8581 86.7145 58.9535 87.1535C57.9342 86.7243 56.914 86.2992 55.8893 85.8941C55.7947 85.4852 55.7394 85.0727 55.6746 84.6609C56.6721 85.0446 57.6629 85.4414 58.6566 85.8384ZM54.4482 86.4169C54.5975 86.5222 54.747 86.6302 54.8974 86.7342C54.981 86.793 55.0846 86.7662 55.1732 86.6932C55.2119 86.7087 55.2439 86.7251 55.2827 86.7406C55.4385 87.321 55.5946 87.9042 55.7278 88.4896L53.6346 87.7371C53.8837 87.2725 54.148 86.82 54.4034 86.3613C54.4179 86.3803 54.43 86.4018 54.4482 86.4169ZM62.7666 89.1032C62.7488 89.1153 62.7348 89.1237 62.7186 89.1373C62.2931 89.3826 61.867 89.6224 61.4399 89.8661C61.086 90.0683 60.7296 90.2607 60.3765 90.4588C59.2364 89.9909 58.144 89.3592 56.9937 88.9449L56.6538 88.8236C56.5813 88.463 56.5109 88.097 56.3933 87.7366C56.3282 87.532 56.2852 87.3293 56.2259 87.128C57.9849 87.8429 59.7243 88.612 61.4995 89.2669C61.8825 89.4054 62.2543 88.471 61.9664 88.361C61.171 88.0678 60.382 87.7466 59.592 87.4171C59.6615 87.2866 59.7049 87.1552 59.6847 87.0649C59.6178 86.7633 59.5484 86.4642 59.4775 86.1637C60.9933 86.7655 62.5136 87.3471 64.036 87.9235C63.6314 88.3233 63.2228 88.7241 62.7666 89.1032ZM64.8414 87.1619C63.9055 86.8134 62.9723 86.4527 62.0439 86.0871C62.0439 86.0871 62.0442 86.0776 62.0466 86.0751C62.0937 85.5908 62.0441 85.1106 61.9687 84.6324C63.3969 85.1177 64.8267 85.6168 66.2599 86.1093C65.7342 86.4212 65.2667 86.7748 64.8414 87.1619ZM67.4267 85.453C66.1196 84.9969 64.8153 84.5411 63.5061 84.1026C63.5236 84.0536 63.5332 84.0067 63.5305 83.9724C63.5156 83.4842 63.4582 82.9966 63.4021 82.5077C63.4237 82.5164 63.444 82.5263 63.4655 82.5349C65.262 83.2543 67.0961 84.0492 68.9394 84.5966C68.4421 84.8944 67.9361 85.1766 67.4267 85.453ZM70.126 83.8764C67.8509 83.2996 65.5665 82.2938 63.3622 81.3997C63.3308 81.3889 63.2871 81.3661 63.2523 81.3495C63.1562 80.7878 63.0585 80.2245 62.923 79.6539C62.7615 78.9898 62.5098 78.2459 62.2931 77.4967C62.617 77.6562 62.9317 77.8189 63.2078 77.9444C64.3474 78.4655 65.4923 78.9966 66.6583 79.4285C68.84 80.2471 70.9951 81.1889 73.1682 82.0504C72.1357 82.6266 71.1296 83.2528 70.126 83.8764ZM74.3705 81.4284C71.7986 80.4571 69.218 79.4114 66.6695 78.348C66.714 78.1908 66.7096 78.0254 66.6096 77.897C66.0641 77.1911 65.5575 76.4203 65.1238 75.6175C67.1189 76.7 69.1915 77.6376 71.2381 78.4011C71.8839 78.6449 75.4075 79.6919 76.4892 80.5355C75.7599 80.7921 75.0548 81.0916 74.3705 81.4284ZM77.7172 80.1557C77.6124 80.1837 77.5156 80.222 77.4124 80.2515C77.1032 79.1345 73.2218 78.0711 72.3496 77.7402C71.0195 77.2399 69.6854 76.682 68.3651 76.0789C68.5004 75.9143 68.5852 75.6814 68.5082 75.4922C68.2699 74.9199 67.9008 74.3993 67.6126 73.8446C68.7094 74.2461 69.8095 74.6412 70.8669 75.1731C73.7551 76.6238 76.8757 77.5838 79.8614 78.6526C79.182 79.1943 78.4726 79.7022 77.7172 80.1557ZM80.4897 78.0956C80.5241 77.9458 80.5187 77.8185 80.4486 77.7921C77.1599 76.6134 73.9336 75.2558 70.6836 73.963C70.7251 73.781 70.6951 73.5835 70.5436 73.4589C69.9001 72.944 69.5129 72.0714 69.246 71.1516C70.6278 71.7776 72.0317 72.3468 73.3645 72.94C76.2652 74.2294 79.1279 75.521 82.0756 76.6043C81.5708 77.1293 81.0403 77.6222 80.4897 78.0956ZM84.5744 73.6594C84.0007 74.4255 83.3904 75.1585 82.7565 75.8663C82.7113 75.7957 82.655 75.7364 82.5606 75.7012C79.3684 74.5402 76.2606 73.1188 73.1235 71.7278C71.7605 71.1225 70.3347 70.5296 68.9358 69.8627C68.8186 69.2732 68.7259 68.7172 68.6259 68.286C68.5213 67.838 68.416 67.3846 68.2908 66.9363C68.9676 67.2808 69.6477 67.6188 70.3276 67.9541C70.731 68.6153 71.1812 69.2559 71.765 69.8449C72.1597 70.2463 72.6979 69.3995 72.3724 69.0748C72.2979 69.0004 72.2446 68.9196 72.1742 68.8441C76.2366 70.7615 80.3581 72.4356 84.5744 73.6594ZM85.2158 72.783C80.3207 71.3959 75.5606 69.3873 70.8788 67.0906C70.5085 66.4663 70.1843 65.8158 69.8576 65.1433C69.5405 64.4948 69.0663 63.6967 68.693 62.8962C69.0107 63.1425 69.3393 63.3773 69.757 63.5542C70.4196 63.8362 71.0839 64.1442 71.7391 64.4678C71.7442 64.4874 71.7476 64.5054 71.7527 64.5249C72.1199 65.8909 72.5559 67.1672 73.7699 68.1583C74.0182 68.3619 74.532 67.4939 74.2346 67.2576C73.452 66.6177 72.9899 65.8071 72.6737 64.9445C74.1198 65.6986 75.5298 66.5179 76.9487 67.3434C79.8947 69.0526 83.1687 70.1291 86.309 71.1986C85.955 71.7376 85.5868 72.2604 85.2158 72.783ZM86.8767 70.3119C83.241 69.0564 79.6456 67.7251 76.2156 65.7285C74.9215 64.9748 73.6195 64.2942 72.2958 63.639C72.1693 63.0869 72.0671 62.5314 71.9573 62.0053C71.8505 61.504 71.7108 61.0368 71.5517 60.5802C72.5531 61.0897 73.5485 61.6301 74.5532 62.1331C74.9344 63.2684 75.4019 64.37 76.2492 65.3508C76.5565 65.7066 77.088 64.8606 76.8305 64.5676C76.3157 63.9721 75.9536 63.3361 75.6641 62.6777C77.3955 63.4953 79.1267 64.3347 80.868 65.1204C82.5271 65.8706 84.1865 66.5649 85.8633 67.2319C86.7132 67.5705 87.4823 67.9556 88.2825 68.0459C87.8246 68.8067 87.3562 69.5598 86.8767 70.3119ZM90.1515 64.9581C89.7202 65.6666 89.2918 66.3875 88.8551 67.1079C87.3912 67.1105 85.1867 65.9232 83.8269 65.3331C82.2849 64.6596 80.771 63.923 79.2445 63.218C78.9302 63.0703 78.6154 62.9075 78.2989 62.7528C78.4766 62.5999 78.5891 62.3229 78.4738 62.0869C78.0874 61.2907 77.7898 60.517 77.5389 59.7445C78.3712 60.1198 79.2045 60.4911 80.0446 60.8398C83.4198 62.2535 86.8717 63.3777 90.2426 64.802C90.2101 64.8511 90.1821 64.9047 90.1515 64.9581ZM91.97 61.8142C91.5741 62.5202 91.1679 63.2212 90.7587 63.9193C86.9378 62.299 83.0076 61.0761 79.1982 59.379C78.5152 59.0749 77.8381 58.774 77.167 58.4667C76.8372 57.1857 76.6092 55.8982 76.3805 54.5465C77.1577 54.8954 77.9274 55.2614 78.687 55.647C79.1747 57.0367 79.7574 58.3962 80.4781 59.7428C80.6976 60.1554 81.2886 59.3621 81.0768 58.9693C80.5943 58.0655 80.2011 57.1651 79.8465 56.2557C80.0904 56.3866 80.3355 56.504 80.5773 56.6402C81.0664 56.9131 81.5572 57.1534 82.0483 57.4087C82.0531 57.5768 82.0664 57.7484 82.053 57.9137C82.0228 58.3558 82.4142 58.0067 82.5968 57.6974C85.669 59.2699 88.7913 60.5929 91.97 61.8142ZM93.826 58.5575C93.3666 59.3414 92.9162 60.1315 92.472 60.9275C89.1577 59.6703 85.8469 58.3383 82.6618 56.62C82.5723 55.6496 82.2635 54.6404 81.9086 53.6818C82.2301 53.8438 82.5536 54.0005 82.8753 54.153C83.1415 54.5545 83.4857 54.9216 83.945 55.2315C84.1006 55.3332 84.3137 55.0974 84.4239 54.8353C84.5688 54.8924 84.7135 54.9591 84.8596 55.015C87.8743 56.1557 90.815 57.4594 93.826 58.5575ZM110.309 40.6172C108.656 39.9098 106.989 39.1549 105.351 38.3683C105.451 38.224 105.536 38.062 105.545 37.9877C105.607 37.461 105.571 36.9507 105.507 36.4365C106.088 36.7253 106.667 37.0167 107.251 37.2934C107.245 37.3516 107.256 37.4112 107.251 37.4694C107.225 37.74 107.377 37.6204 107.524 37.4281C107.54 37.4363 107.559 37.4447 107.575 37.4529C109.045 38.1449 110.54 38.8799 112.036 39.5538C111.454 39.8991 110.879 40.2559 110.309 40.6172ZM113.108 38.9249C111.327 38.1713 109.529 37.3113 107.781 36.4459C107.788 35.811 107.735 35.1587 107.651 34.5011C108.283 34.8146 108.915 35.1376 109.541 35.463C109.564 35.7418 109.574 36.0194 109.543 36.2951C109.459 36.9877 110.316 36.7104 110.373 36.216C110.386 36.1094 110.374 36.002 110.379 35.8946C111.808 36.6351 113.241 37.3662 114.703 38.0167C114.171 38.3144 113.64 38.619 113.108 38.9249ZM115.819 37.3943C114.755 36.9437 113.709 36.4495 112.672 35.9274C112.68 35.8818 112.704 35.8387 112.709 35.7901C112.736 35.3082 112.689 34.8132 112.631 34.3201C112.849 34.4161 113.066 34.5094 113.282 34.6079C113.813 34.8529 114.352 35.0836 114.888 35.3236C114.891 35.3512 114.894 35.3787 114.895 35.406C114.9 35.7406 115.104 35.6773 115.289 35.5019C116.021 35.8292 116.752 36.1579 117.483 36.481C116.926 36.7848 116.376 37.0878 115.819 37.3943ZM118.62 35.8795C117.949 35.579 116.818 35.0736 115.53 34.5019C115.483 33.8952 115.399 33.2784 115.317 32.6647C116.241 32.9972 117.168 33.3218 118.071 33.6949C118.105 34.0796 118.127 34.462 118.082 34.836C118.017 35.3542 118.621 34.5812 118.65 34.3504C118.664 34.2152 118.651 34.0804 118.653 33.9456C119.297 34.2342 119.919 34.5646 120.518 34.9462C119.874 35.2359 119.246 35.5542 118.62 35.8795ZM121.638 34.481C121.384 34.2919 121.119 34.1278 120.854 33.9624L120.858 33.9587C120.944 33.3999 120.96 32.8338 120.948 32.2587C122.021 32.6229 123.087 33.0136 124.128 33.4815C123.29 33.8013 122.461 34.1368 121.638 34.481ZM125.438 32.9776C123.97 32.2367 122.431 31.6957 120.89 31.1818C120.886 31.1215 120.887 31.0643 120.883 31.0039C121.968 30.9941 123.062 31.0435 124.138 31.2224C124.194 31.2326 124.251 31.2142 124.302 31.1857C125.19 31.5684 126.056 32.0134 126.949 32.3884C126.445 32.5875 125.942 32.7867 125.438 32.9776ZM120.474 27.4536C124.63 28.1186 128.799 28.9062 132.959 29.6138C131.193 30.2281 129.59 31.2678 127.92 31.9925C127.951 31.8369 127.944 31.7054 127.865 31.6728C126.684 31.2259 125.557 30.59 124.378 30.112C124.378 30.007 124.343 29.9262 124.255 29.9053C124.036 29.8541 123.906 30.0315 123.809 30.1815C121.76 29.9305 119.65 30.0481 117.698 30.2185C116.026 30.3715 114.317 30.3645 112.626 30.4287C112.446 30.3344 112.259 30.252 112.082 30.1484C112.067 30.1172 112.051 30.094 112.025 30.0864L111.872 30.0313C111.677 29.9617 111.442 30.2325 111.346 30.4985C111.255 30.5059 111.161 30.5076 111.07 30.5149C110.785 30.5374 110.496 30.5677 110.207 30.5912C110.058 30.4301 109.794 30.4502 109.629 30.645C109.084 30.6989 108.54 30.7637 107.996 30.8353C108.17 30.5063 108.328 30.1704 108.472 29.8975C109.225 28.4918 110.268 27.2372 110.974 25.8126C114.145 26.3349 117.315 26.9472 120.474 27.4536ZM108.473 25.4351C108.443 25.7666 108.651 25.6777 108.831 25.4855C109.414 25.5713 109.999 25.6585 110.584 25.7553C110.571 25.7937 110.555 25.8347 110.545 25.8734C110.094 26.6607 109.453 27.3638 109.012 28.1561C108.644 28.8113 108.316 29.4942 107.908 30.1229C107.766 30.3401 107.656 30.6828 107.481 30.9163C106.19 31.1013 104.916 31.3435 103.674 31.6512C103.716 31.5402 103.761 31.4198 103.803 31.3238C104.349 30.1476 105.261 29.2285 106.069 28.2543C106.307 27.9742 106.53 27.6942 106.758 27.4065C107.046 27.0378 108.268 25.8856 108.446 25.4327C108.454 25.4334 108.461 25.4354 108.473 25.4351ZM105.812 25.1C106.511 25.1749 107.21 25.2609 107.911 25.3552C106.677 26.3618 105.743 27.7973 104.77 28.9922C104.253 29.6281 103.754 30.3077 103.409 31.0753C103.365 31.1738 103.31 31.3479 103.249 31.5406L103.067 31.4107C102.853 31.2578 102.639 31.7608 102.576 31.9369C102.048 32.0876 101.524 32.2551 101.011 32.437C101.741 29.6615 103.736 26.9621 105.812 25.1ZM103.038 24.8509C103.763 24.8953 104.488 24.9576 105.214 25.0294C103.232 27.0139 101.433 29.6643 100.636 32.3852C100.581 32.4515 100.54 32.5408 100.503 32.625C100.334 32.6885 100.16 32.7448 99.9941 32.8114C99.9653 32.8226 99.9395 32.8245 99.9129 32.8428C99.4361 33.036 98.9678 33.2422 98.5124 33.4659C98.3805 33.5312 98.2467 33.5922 98.1132 33.6561C98.505 32.1573 99.299 30.9378 99.8635 29.5354C100.5 27.9563 101.279 26.5364 102.154 25.1341C102.262 25.0599 102.351 24.9488 102.41 24.8324C102.618 24.8402 102.824 24.8371 103.038 24.8509ZM98.6672 24.9112C97.3838 28.0672 96.072 31.0176 95.4098 34.5108C95.2776 35.1789 95.8965 34.5421 95.9515 34.2535C96.5981 30.8599 97.9015 27.9429 99.1504 24.8658C99.9635 24.8099 100.793 24.799 101.629 24.8118C100.815 26.1142 100.053 27.4428 99.4679 28.8939C98.7737 30.6251 97.8145 32.1389 97.3792 34.0009C96.4362 34.4414 95.4764 34.8683 94.5093 35.2904C94.4397 35.1986 94.3239 35.2844 94.2139 35.4197C93.6598 35.6651 93.1069 35.9092 92.5513 36.1531C93.2912 32.3201 94.5004 28.3109 96.6424 25.2991C96.6765 25.2515 96.6989 25.1975 96.7157 25.143C97.3594 25.0429 98.0085 24.965 98.6672 24.9112ZM95.6412 25.3147C93.5558 28.5521 92.3473 32.6255 91.6332 36.5616C90.7029 36.9828 89.7837 37.4171 88.881 37.8747C88.868 37.8695 88.8548 37.8616 88.8391 37.8562C88.7357 37.8147 88.6369 37.8706 88.5454 37.9652C88.9891 35.1738 89.4307 32.5049 90.5422 29.981C91.1071 28.6986 91.9483 27.5199 92.3489 26.1542L92.3063 26.1643C92.3199 26.1408 92.318 26.1243 92.3289 26.1007C93.4146 25.7908 94.5162 25.5231 95.6412 25.3147ZM88.2794 27.5067C89.3897 27.0571 90.5147 26.6509 91.6621 26.2957C91.0713 28.1146 89.8916 29.6618 89.2977 31.49C88.5561 33.7491 88.2073 36.0438 87.8266 38.4395C87.0902 38.8455 86.3619 39.2618 85.6682 39.7164C85.3352 39.9339 85.0331 40.1814 84.7101 40.4134C84.8961 39.2602 84.7579 38.0375 85.0263 36.9103C85.2984 35.7671 85.6465 34.6656 86.0213 33.5705C86.7189 31.5301 87.5488 29.5567 88.2534 27.5182C88.2638 27.5136 88.269 27.5113 88.2794 27.5067ZM87.6197 27.7964C86.8066 30.1109 85.8635 32.3557 85.1147 34.7056C84.796 35.6963 84.5182 36.6972 84.3137 37.7398C84.1144 38.7337 84.2844 39.8185 84.0928 40.8199C84.0892 40.836 84.093 40.8445 84.0906 40.8593C83.9461 40.9685 83.7947 41.0663 83.6518 41.177C83.6511 41.1715 83.6501 41.1633 83.648 41.1563C83.6031 41.0079 83.3786 41.2401 83.2236 41.493C83.1647 41.5385 83.1122 41.5928 83.0548 41.6398C82.9929 41.6141 82.9325 41.5777 82.8722 41.5535C82.606 41.4426 82.3602 41.7493 82.3243 42.049C82.3105 40.8027 82.3715 39.6335 82.6722 38.4081C83.0132 37.0019 83.3032 35.5806 83.6162 34.1571C84.0379 32.2504 84.6841 30.5411 85.3752 28.807L85.3693 28.8038C85.3714 28.7985 85.372 28.7917 85.3754 28.7852C86.1149 28.4408 86.8643 28.1109 87.6197 27.7964ZM82.3376 42.267C82.3351 42.2695 82.3327 42.272 82.329 42.2758C82.3307 42.2555 82.3269 42.2347 82.3286 42.2144C82.3321 42.2324 82.3332 42.253 82.3376 42.267ZM84.2698 29.3103C83.6348 30.94 83.0127 32.7017 82.6736 34.5322C82.3685 36.1855 81.8763 37.7726 81.5872 39.4341C81.3689 40.6855 81.434 41.7398 81.4854 43.0152C81.352 43.1377 81.209 43.2484 81.0784 43.3711C80.9694 43.3756 80.8433 43.5246 80.748 43.7034C80.7098 43.7398 80.6763 43.7806 80.6369 43.8182C80.4914 43.8606 80.3725 44.002 80.3124 44.1538C79.4197 45.0582 78.5706 46.0071 77.7614 46.9921C77.7519 45.7011 77.4723 44.4052 77.6443 43.109C77.8143 41.7962 78.0317 40.5024 78.2641 39.2085C78.7395 36.5357 79.5783 34.2534 80.7004 31.9131C80.7844 31.7429 80.82 31.3012 80.5641 31.3125C81.771 30.6022 83.0031 29.9309 84.2698 29.3103ZM80.195 31.5366C80.1174 31.6569 80.0517 31.8082 80.0339 31.9595C78.924 34.3213 78.0752 36.6819 77.5997 39.3888C77.306 41.058 77.029 42.7287 76.8518 44.435C76.7367 45.5273 77.1282 46.7044 77.0864 47.8042C77.0709 47.8234 77.0538 47.841 77.0398 47.8617C76.6344 48.3828 76.2589 48.9255 75.8745 49.4619L75.4675 49.3173C75.17 49.2078 74.8092 50.1432 75 50.2178C75.0831 50.2493 75.1674 50.2919 75.2493 50.3246C75.1358 50.4883 75.026 50.6482 74.9125 50.8119C74.7497 49.7536 74.202 48.7257 74.1497 47.6056C74.0841 46.1749 74.2407 44.8174 74.3559 43.4346C74.6259 40.1431 75.5344 37.0224 76.5232 34.0258C76.5305 34.006 76.5304 33.9937 76.5349 33.9736C77.7114 33.1094 78.9321 32.2953 80.195 31.5366ZM75.1765 34.9671C75.3919 34.797 75.6261 34.6475 75.8433 34.4816C75.3922 35.8008 74.911 37.0861 74.6591 38.5052C74.4188 39.8598 73.9119 41.252 73.8261 42.6414C73.7141 44.4473 73.4357 46.2119 73.5303 48.0638C73.5958 49.2381 74.264 50.5802 74.3136 51.7123C74.1974 51.888 74.0784 52.0635 73.961 52.2405C73.9483 52.2599 73.9351 52.2765 73.9224 52.2959C73.5714 52.8257 73.2142 53.3494 72.8663 53.8821C72.7643 53.7126 72.5971 53.8268 72.4569 53.9965C72.0303 52.4509 71.4777 50.5906 71.4905 49.1624C71.5026 48.1828 71.4787 47.1879 71.3928 46.1892C71.1723 43.6149 71.5532 40.9069 71.7618 38.4203C71.7676 38.3649 71.7587 38.3246 71.7523 38.2818C72.8004 37.0932 73.9235 35.9722 75.1765 34.9671ZM60.2518 55.7304C61.8313 52.8924 63.5997 50.1835 65.3267 47.4247C67.0899 44.6131 68.8398 41.7935 70.9144 39.2562C70.7028 41.8448 70.5335 44.4792 70.6541 47.1228C70.7159 48.4523 70.571 49.7577 70.8777 51.109C71.1703 52.376 71.4873 53.6642 71.833 54.9288C71.8723 55.0767 71.95 55.1323 72.0418 55.1332C71.9046 55.3399 71.769 55.5481 71.6318 55.7548C71.5489 55.7601 71.467 55.7614 71.387 55.7793C71.1113 55.8325 70.9203 56.3729 71.0293 56.6248C70.7804 56.9872 70.5245 57.3476 70.2737 57.7057C70.236 57.6644 70.1968 57.6215 70.1603 57.5789C70.1103 57.5256 70.0555 57.5142 70.0003 57.5219C69.8008 56.4768 69.3867 55.4219 69.2622 54.3859C69.1004 53.0207 69.0661 51.6349 68.8304 50.2813C68.6061 48.99 68.3971 47.7014 68.4794 46.4576C68.5113 45.9025 68.5692 45.37 68.3293 44.7962C68.1188 44.3093 67.5644 44.657 67.5128 44.9513L67.4959 45.0522C67.4606 45.2525 67.5119 45.4095 67.6074 45.5116C67.8318 46.3147 67.5896 47.6773 67.6549 48.407C67.7542 49.5432 67.9768 50.6911 68.0709 51.8296C68.2382 53.8935 68.7961 55.8688 69.158 57.9231C69.2126 58.2127 69.389 58.293 69.5723 58.2579C69.5751 58.3045 69.5842 58.3476 69.6019 58.3818C69.6314 58.4347 69.6621 58.4864 69.6916 58.5393C69.6797 58.5547 69.6682 58.5728 69.6563 58.5882C69.5845 58.6872 69.5311 58.7918 69.4605 58.8895C69.4358 58.9243 69.4096 58.9575 69.3896 58.9968C68.9226 59.6804 68.5162 60.391 68.1455 61.1141C68.1455 61.1018 68.1411 61.0879 68.1394 61.0741C68.2225 60.8956 68.2518 60.6798 68.1552 60.5326C68.1251 60.4864 68.0981 60.4432 68.0708 60.3973C67.7988 59.9803 67.4036 60.6577 67.3848 60.8471C67.3781 60.9188 67.3841 60.993 67.383 61.0652C66.8784 59.2635 66.916 57.2782 66.5893 55.5582C66.1358 53.1785 65.5918 50.6234 65.6341 48.2934C65.6462 47.6752 64.9758 48.3159 64.9288 48.5684L64.8753 48.8585C64.846 49.0278 64.8754 49.1271 64.9264 49.1764C64.9627 51.453 65.4931 53.8583 65.9149 56.1659C66.3188 58.3683 66.1927 60.8344 67.2134 62.9862C67.0691 63.2837 66.9106 63.5773 66.7577 63.8713C66.6748 63.9694 66.6136 64.1007 66.58 64.2219C66.5263 64.3238 66.4756 64.4287 66.4207 64.5318C66.3306 64.6961 66.2506 64.8653 66.1616 65.0283C66.1043 65.0999 66.057 65.186 66.0315 65.2834C65.6815 65.9264 65.3392 66.5769 64.9951 67.2231C65.0178 67.1718 65.0328 67.1131 65.0336 67.0504C65.1906 62.2506 63.8236 57.2683 63.3945 52.4193C63.3568 51.9702 62.9289 51.7761 62.6591 52.089L62.5226 52.2426C62.3137 52.4801 62.3924 52.8345 62.5751 53.0039C62.8122 54.9741 63.363 56.9938 63.5654 58.9719C63.7212 60.4607 63.7784 61.9371 63.8296 63.4198C63.8708 64.6439 64.193 65.8711 64.1511 67.0978C64.1357 67.7007 64.7701 67.638 64.9689 67.2687C64.3848 68.3762 63.8044 69.4922 63.2548 70.6259C63.2163 70.7058 63.1677 70.7808 63.1304 70.8595C62.9148 70.2946 62.5323 69.7415 62.449 69.1726C62.3404 68.4229 62.3404 67.7246 62.288 66.9879C62.205 65.7575 62.0269 64.4524 61.7728 63.2105C61.2961 60.8424 61.509 58.4162 60.869 56.0686C60.815 55.8772 60.6739 55.6894 60.4577 55.7122L60.2518 55.7304ZM58.1418 60.3527C58.0701 60.3249 58.0079 60.3429 57.9486 60.3856C58.5249 59.0483 59.1591 57.7499 59.8399 56.4868C59.8751 56.6235 59.9534 56.731 60.1064 56.752C60.3278 57.8671 60.1963 58.9485 60.4165 60.0648C60.6777 61.4138 60.8032 62.7609 61.0119 64.1177C61.2554 65.6888 61.394 67.217 61.508 68.78C61.5822 69.8186 62.065 70.376 62.359 71.3636C62.4218 71.583 62.55 71.6728 62.6852 71.6937C62.2816 72.4632 61.8843 73.2386 61.4493 73.9849C61.298 73.338 61.0677 72.6832 60.8812 72.0511C60.5997 71.1001 60.5761 70.1543 60.3078 69.1989C59.9597 67.9955 59.6723 66.8189 59.4591 65.5995C59.3294 64.9149 58.9869 60.7087 58.1418 60.3527ZM54.4537 70.3513C54.4052 70.3118 54.3564 70.3036 54.3052 70.3102C54.752 68.9893 55.2102 67.6721 55.6774 66.3611C55.8066 67.1575 56.2087 67.8077 56.4622 68.6609C56.7546 69.6346 56.9739 70.6159 57.2623 71.5907C57.8375 73.5388 57.9515 75.5559 58.6072 77.4671C58.7651 77.9372 59.3444 77.1498 59.2375 76.834C58.5871 74.9328 58.4377 72.8936 57.8883 70.9558C57.6178 69.9812 57.426 68.9899 57.0969 68.0295C56.8648 67.3703 56.4568 66.6119 56.3163 65.9291C56.3397 65.8493 56.3488 65.775 56.3279 65.7132L56.2599 65.4839C56.2134 65.3218 56.1255 65.3076 56.0328 65.3571C56.4636 64.1671 56.9021 62.9846 57.3566 61.8103C57.4297 61.6173 57.5148 61.4335 57.5913 61.2463C57.5558 61.456 57.6502 61.4326 57.7729 61.3242C58.5274 61.9808 58.8962 66.3515 59.0371 67.1543C59.2035 68.1161 59.5227 69.0622 59.7649 70.0167C60.0108 70.9798 60.0733 71.9069 60.3407 72.8663C60.5171 73.4935 60.7672 74.1896 60.9137 74.8538C60.6958 75.2119 60.4776 75.5673 60.2566 75.9225C60.2566 75.9225 60.2526 75.9235 60.2471 75.923C60.0055 75.9751 59.8516 76.3072 59.8523 76.5814C58.9767 77.9564 58.085 79.3231 57.1879 80.6895C57.058 79.9926 56.6982 79.3759 56.4528 78.6502C55.971 77.2173 55.9531 75.6447 55.8065 74.2113C55.7226 73.405 55.1883 70.9544 54.4537 70.3513ZM50.8838 80.8085C51.9065 77.6224 52.9272 74.4321 53.9862 71.2641C53.9952 71.2703 54.0013 71.2762 54.01 71.2797C54.3648 71.6204 54.6898 73.1752 54.8101 73.5699C55.1218 74.5916 55.1767 75.5823 55.302 76.602C55.4094 77.4457 55.4065 78.422 55.7741 79.2561C56.1062 80.0096 56.5179 80.7178 56.5307 81.5017C56.5305 81.5699 56.5443 81.6175 56.5599 81.6569C56.2144 82.1871 55.868 82.7091 55.529 83.248C55.4427 83.3867 55.3659 83.5371 55.2796 83.6758C54.9726 81.2033 53.8821 78.7374 53.3783 76.2552C53.3733 76.2016 53.3473 76.1544 53.2983 76.1216L53.2007 76.0835C52.8965 75.9748 52.6939 76.4283 52.6602 76.6423L52.6076 76.9284C52.5497 77.2509 52.6728 77.2967 52.8252 77.2194C53.1274 78.0904 54.0561 81.1837 54.1441 81.5129C54.3935 82.4817 54.616 83.6297 54.6976 84.6853C54.1625 85.6156 53.6322 86.5531 53.1245 87.5075C52.5806 86.4539 52.4431 85.1686 52.2065 84.0754C51.9581 82.9512 51.5054 81.8003 51.2905 80.6939C51.2323 80.4204 51.0345 80.6002 50.8838 80.8085ZM47.9948 97.2787C47.3394 97.5361 46.4772 97.7447 45.9888 98.2465C45.0316 99.23 44.0972 100.14 43.2406 101.165C44.6935 98.4147 45.9144 95.518 46.9776 92.5372C48.2598 88.9283 49.4491 85.2734 50.6293 81.6123C50.614 81.8074 50.6873 81.849 50.7917 81.8059C51.0736 83.0284 51.5082 84.2814 51.7927 85.5136C51.9978 86.3737 52.1024 87.2635 52.4832 88.1056L52.463 88.213C52.4494 88.295 52.4465 88.3753 52.458 88.4376C52.4482 88.5404 52.4595 88.6491 52.4528 88.755C52.1308 89.3567 51.7875 89.9402 51.4495 90.5338C51.3926 89.8171 51.3081 89.0981 51.0876 88.3745C50.9421 87.8699 50.7821 87.371 50.5977 86.8727C50.4694 86.5264 50.1938 86.2892 50.1687 85.9011C50.1351 85.3241 49.4515 85.6787 49.393 85.9956L49.3752 86.0882C49.3518 86.2267 49.3659 86.3357 49.4005 86.4204C49.5113 87.0721 49.9888 87.7463 50.1882 88.3836C50.4582 89.26 50.5843 90.0998 50.6558 90.9528C50.3329 90.9066 49.9887 91.3891 50.1838 91.7219C50.2859 91.9037 50.3484 92.0862 50.4002 92.2706C50.174 92.628 49.9259 92.9741 49.6837 93.3234C49.3607 92.4493 49.227 91.5339 49.1729 90.6661C49.1334 90.0272 48.4113 90.1003 48.3262 90.5868L48.2939 90.7778C48.2681 90.9311 48.2915 91.049 48.3373 91.147C48.4179 92.0893 48.5832 93.0524 48.9566 93.9825C48.8931 94.1995 48.8617 94.4328 48.8539 94.6695C48.8392 94.7651 48.8443 94.8555 48.8672 94.9338C48.8895 95.5071 49.03 96.1095 49.2496 96.6734C48.8393 96.8968 48.4269 97.1131 47.9948 97.2787ZM154.245 121.315C153.327 120.444 152.372 119.602 151.394 118.784C151.966 117.639 152.371 116.421 152.647 115.143C152.894 115.345 153.141 115.544 153.372 115.763C154.109 116.456 155.002 117.13 155.72 117.895C155.354 119.108 154.882 120.269 154.245 121.315ZM92.7542 121.524C92.3671 120.28 92.0486 119.037 91.8175 117.851C92.4884 117.167 93.0561 116.444 93.5331 115.682C94.09 116.694 94.7194 117.672 95.2583 118.706C95.3139 118.818 95.3644 118.933 95.4212 119.044C94.6769 119.906 93.8284 120.709 92.8514 121.408C92.8074 121.441 92.7778 121.481 92.7542 121.524ZM97.646 115.258C97.2754 116.355 96.7088 117.367 96.0147 118.307C95.3927 117.136 94.6241 116 94.0217 114.822C94.8479 113.235 95.3315 111.505 95.6097 109.67C95.7262 109.939 95.8327 110.193 95.9273 110.404C96.3979 111.463 96.8465 112.531 97.2896 113.6C97.4444 113.974 97.6152 114.344 97.79 114.714C97.7358 114.893 97.7072 115.08 97.646 115.258ZM99.2627 109.536C99.9845 110.857 100.557 112.363 101.108 113.464C101.441 114.128 101.744 114.797 102.043 115.467C101.915 116.211 101.754 116.943 101.516 117.653C101.347 118.149 101.121 118.619 100.885 119.084C100.71 118.732 100.539 118.378 100.369 118.019C99.78 116.765 99.1784 115.524 98.5876 114.281C98.9759 112.777 99.1765 111.188 99.2627 109.536ZM98.201 115.568C98.7359 116.649 99.2953 117.718 99.7959 118.81C99.9798 119.21 100.165 119.602 100.353 119.995C99.6993 121.026 98.8931 121.968 97.9371 122.811C97.4785 121.552 96.9904 120.298 96.3929 119.056C97.1822 117.971 97.769 116.805 98.201 115.568ZM102.498 116.52C102.971 117.64 103.421 118.766 103.889 119.892C104.059 120.303 104.222 120.728 104.387 121.157C103.906 121.862 103.366 122.531 102.733 123.145C102.302 122.018 101.789 120.938 101.257 119.854C101.81 118.804 102.208 117.688 102.498 116.52ZM106.731 117.448C107.376 118.95 108.115 120.389 109.068 121.847C109.112 121.916 109.152 121.989 109.194 122.057C108.551 123.09 107.75 124.035 106.803 124.879C106.733 124.713 106.661 124.546 106.593 124.378C106.136 123.294 105.701 122.199 105.27 121.103C105.929 119.961 106.401 118.738 106.731 117.448ZM111.368 118.404C112.058 119.726 112.741 121.047 113.377 122.364C113.413 122.441 113.45 122.52 113.485 122.596C112.977 123.364 112.398 124.093 111.714 124.753C111.229 123.772 110.682 122.827 110.101 121.894C110.669 120.795 111.08 119.628 111.368 118.404ZM115.832 118.655C116.216 119.453 116.607 120.251 116.963 121.05C117.265 121.727 117.598 122.375 117.944 123.009C117.351 123.903 116.657 124.738 115.827 125.488C115.323 124.476 114.854 123.456 114.402 122.46C115.058 121.268 115.52 119.996 115.832 118.655ZM120.207 119.393C120.938 120.72 121.694 122.036 122.473 123.344C121.933 124.155 121.319 124.929 120.584 125.621C120.508 125.509 120.431 125.396 120.356 125.286C119.841 124.544 119.273 123.779 118.801 122.991C119.436 121.862 119.891 120.659 120.207 119.393ZM151.534 116.816C151.356 117.344 151.118 117.849 150.861 118.343C149.869 117.524 148.868 116.718 147.865 115.916C148.129 114.667 148.279 113.362 148.351 112.015C148.447 112.086 148.541 112.162 148.638 112.232C149.756 113.044 150.947 113.806 152.058 114.661C151.931 115.393 151.771 116.114 151.534 116.816ZM153.154 111.172C154.245 112.154 155.303 113.17 156.302 114.21C156.302 115.057 156.257 115.895 156.054 116.712C156.047 116.744 156.036 116.775 156.027 116.808C155.333 116.105 154.536 115.461 153.836 114.857C153.516 114.579 153.185 114.318 152.851 114.058C153.002 113.12 153.1 112.16 153.154 111.172ZM146.736 117.698C146.445 118.562 146.012 119.359 145.518 120.126C145.332 119.963 145.139 119.801 144.954 119.634C144.358 119.109 143.817 118.535 143.299 117.94C143.653 116.684 143.869 115.364 143.992 113.998C144.242 114.228 144.433 114.401 144.519 114.472C145.343 115.166 146.19 115.847 147.042 116.529C146.946 116.922 146.864 117.316 146.736 117.698ZM142.454 118.545C142.133 119.498 141.642 120.376 141.075 121.21C140.347 120.365 139.645 119.509 138.954 118.638C139.269 117.481 139.478 116.274 139.595 115.022C140.708 116.311 141.572 117.315 141.783 117.583C142.01 117.87 142.246 118.145 142.485 118.42C142.472 118.462 142.466 118.505 142.454 118.545ZM138.075 119.371C137.767 120.289 137.299 121.137 136.761 121.947C135.963 120.934 135.159 119.917 134.348 118.898C134.648 117.643 134.82 116.325 134.913 114.965C135.579 115.846 136.258 116.726 136.93 117.616C137.32 118.13 137.728 118.645 138.131 119.158C138.109 119.225 138.098 119.3 138.075 119.371ZM133.54 119.357C133.466 119.635 133.416 119.918 133.323 120.19C133.011 121.118 132.537 121.973 131.991 122.791C131.118 121.71 130.292 120.611 129.587 119.384C129.941 117.888 130.113 116.304 130.182 114.666C131.129 116.334 132.285 117.784 133.514 119.325C133.522 119.335 133.529 119.347 133.54 119.357ZM128.543 120.735C128.309 121.425 127.991 122.082 127.626 122.71C126.794 121.373 125.966 120.035 125.112 118.706C125.08 118.656 125.047 118.604 125.016 118.555C125.295 117.083 125.417 115.536 125.455 113.94C125.629 114.301 125.798 114.663 125.983 115.019C126.837 116.666 127.799 118.282 128.766 119.881C128.691 120.166 128.639 120.457 128.543 120.735ZM123.792 120.763C123.592 121.359 123.336 121.93 123.038 122.479C122.161 121.003 121.322 119.513 120.505 118.013C120.755 116.587 120.865 115.094 120.902 113.555C121.975 115.372 123.079 117.218 124.253 119.004C124.135 119.602 123.986 120.191 123.792 120.763ZM124.744 119.764C124.827 119.888 124.901 120.018 124.988 120.141C125.744 121.229 126.427 122.361 127.106 123.491C126.532 124.323 125.863 125.097 125.083 125.796C124.52 124.914 123.974 124.029 123.438 123.14C124.018 122.077 124.44 120.949 124.744 119.764ZM129.229 120.654C129.277 120.737 129.329 120.822 129.38 120.905C129.965 121.874 130.668 122.769 131.401 123.651C130.84 124.351 130.173 124.983 129.459 125.582C129.378 125.462 129.297 125.344 129.215 125.222C128.813 124.606 128.431 123.984 128.042 123.367C128.536 122.504 128.925 121.598 129.229 120.654ZM134.044 119.998C134.774 120.924 135.497 121.841 136.217 122.759C135.549 123.605 134.733 124.362 133.845 125.058C133.776 124.974 133.708 124.887 133.638 124.804C133.248 124.327 132.858 123.859 132.476 123.392C133.163 122.333 133.671 121.196 134.044 119.998ZM138.603 119.764C139.217 120.538 139.854 121.289 140.498 122.034C139.907 122.766 139.208 123.43 138.447 124.05C138.046 123.554 137.637 123.059 137.239 122.556C137.811 121.674 138.255 120.741 138.603 119.764ZM142.971 118.968C143.607 119.664 144.273 120.326 144.961 120.962C144.353 121.751 143.624 122.464 142.826 123.126C142.58 122.888 142.329 122.657 142.1 122.402C141.922 122.203 141.751 121.993 141.576 121.792C142.155 120.902 142.616 119.959 142.971 118.968ZM147.607 116.98C148.522 117.712 149.436 118.451 150.344 119.2C149.662 120.269 148.803 121.243 147.791 122.107C147.216 121.608 146.642 121.108 146.068 120.607C146.759 119.473 147.254 118.26 147.607 116.98ZM156.899 116.093C156.949 115.522 156.977 114.952 156.978 114.38C156.996 114.361 157.013 114.343 157.028 114.321C157.018 114.925 156.977 115.517 156.899 116.093ZM157.055 113.598C157.03 113.571 157.007 113.549 156.983 113.525C156.98 113.237 156.979 112.948 156.978 112.656C157.001 112.969 157.047 113.292 157.055 113.598ZM90.2127 89.9024C94.1347 87.5869 98.5124 85.9929 103.25 85.2447C112.784 83.7327 123.914 84.1358 134.024 87.6447C141.09 90.0908 148.457 95.1659 152.907 101.691C152.111 101.117 151.208 100.732 150.321 100.292C149.102 99.681 147.577 98.6312 146.284 98.7355C145.928 98.763 145.63 99.7295 146.151 99.6913C147.367 99.5901 149.048 100.818 150.222 101.371C151.321 101.894 152.494 102.39 153.304 103.382C153.475 103.588 153.707 103.432 153.848 103.196C154.919 105.002 155.755 106.91 156.309 108.889C154.907 107.431 153.362 106.275 151.702 105.041C150.601 104.227 149.534 103.188 148.339 102.545C147.486 102.081 146.488 101.763 145.733 101.121C145.296 100.749 144.813 101.64 145.272 102.025C146.049 102.691 147.024 102.907 147.873 103.447C148.859 104.081 149.736 104.831 150.678 105.528C152.71 107.046 154.666 108.43 156.33 110.362C156.317 110.435 156.3 110.499 156.294 110.585C156.237 111.329 156.254 112.076 156.275 112.823C155.279 111.841 154.245 110.902 153.199 109.978C153.205 109.769 153.21 109.556 153.214 109.345C153.217 108.786 152.439 108.793 152.435 109.261C152.433 109.272 152.434 109.287 152.434 109.299C151.864 108.797 151.294 108.289 150.732 107.768C149.536 106.662 148.319 105.768 146.93 104.957C146.13 104.486 145.001 103.584 144.122 103.652C143.768 103.678 143.47 104.645 143.985 104.606C144.862 104.537 146.76 106.001 147.543 106.511C148.714 107.266 149.645 108.2 150.716 109.076C151.284 109.539 151.847 110.02 152.408 110.509C152.384 111.541 152.326 112.564 152.211 113.571C151.186 112.807 150.134 112.087 149.105 111.326C148.867 111.152 148.63 110.967 148.394 110.785C148.396 110.597 148.405 110.412 148.405 110.226C148.412 109.662 147.64 109.677 147.631 110.143C147.632 110.16 147.63 110.181 147.631 110.196C146.493 109.305 145.355 108.402 144.16 107.642C142.899 106.835 141.504 105.512 140.19 104.921C139.836 104.768 139.631 105.193 139.587 105.443L139.555 105.618C139.486 106.005 140.749 106.589 141.22 106.928C142.032 107.5 142.88 107.986 143.697 108.547C145.033 109.455 146.313 110.464 147.604 111.447C147.571 112.797 147.486 114.133 147.268 115.437C146.496 114.817 145.727 114.197 144.978 113.568C144.673 113.312 144.374 113.053 144.069 112.796C144.1 112.228 144.117 111.653 144.127 111.072C144.13 110.509 143.351 110.52 143.35 110.985C143.346 111.379 143.333 111.772 143.323 112.165C141.996 111.041 140.682 109.906 139.438 108.683C138.371 107.636 137.362 106.047 136.117 105.242C135.962 105.143 135.824 105.215 135.707 105.28C135.645 105.317 135.578 105.358 135.513 105.397C135.183 105.593 140.706 110.928 143.281 113.34C143.217 114.694 143.07 116.027 142.768 117.312C141.717 116.041 140.749 114.697 139.715 113.427C139.709 113.421 139.704 113.414 139.698 113.408C139.722 112.91 139.736 112.407 139.742 111.9C139.754 111.335 138.974 111.348 138.968 111.818C138.966 112.048 138.958 112.279 138.955 112.511C137.52 110.769 136.063 109.025 134.505 107.384C133.856 106.7 133.187 105.723 132.457 106.372C132.285 106.526 136.085 110.958 138.898 114.219C138.838 115.501 138.702 116.764 138.428 117.98C138.284 117.798 138.133 117.615 137.991 117.428C136.988 116.104 135.966 114.794 134.972 113.468C134.978 113.22 134.983 112.968 134.987 112.717C134.993 112.222 134.39 112.175 134.245 112.489C132.69 110.38 131.23 108.228 130.046 105.933C130.033 105.881 130.017 105.834 129.987 105.793C129.934 105.709 129.885 105.63 129.83 105.548C129.533 105.082 128.954 105.836 129.146 106.205C130.537 108.976 132.314 111.508 134.183 114.005C134.148 115.435 134.062 116.856 133.809 118.226C133.713 118.106 133.622 117.987 133.525 117.868C131.843 115.779 130.596 113.784 129.479 111.432C128.88 110.169 128.239 108.163 127.163 107.168C127.044 107.053 126.479 107.866 126.7 108.073C127.443 108.76 127.933 110.142 128.356 111.011C128.724 111.755 129.073 112.51 129.433 113.256C129.412 115.033 129.353 116.809 129.065 118.515C128.032 116.737 126.892 115.018 126.072 113.15C125.269 111.311 124.479 109.507 123.603 107.697C123.603 107.568 123.577 107.406 123.443 107.338C123.418 107.323 123.39 107.309 123.364 107.295C122.956 107.093 122.598 107.683 122.77 108.034C123.544 109.63 124.216 111.272 124.946 112.881C124.804 112.919 124.686 113.029 124.685 113.209C124.668 114.71 124.62 116.208 124.44 117.67C123.252 115.818 122.058 113.933 121.027 112.03C120.193 110.481 119.796 108.695 118.856 107.208C118.69 106.935 118.128 107.722 118.307 108.013C119.204 109.44 119.66 111.064 120.39 112.586C120.246 112.623 120.132 112.735 120.13 112.913C120.114 114.28 120.078 115.646 119.939 116.985C118.155 113.645 116.485 110.249 114.864 106.79C114.593 106.217 113.936 106.934 114.135 107.361C115.913 111.156 117.745 114.869 119.725 118.516C119.601 119.179 119.445 119.832 119.231 120.467C119.018 121.101 118.741 121.709 118.412 122.293C118.352 122.173 118.282 122.057 118.231 121.937C117.731 120.806 117.285 119.637 116.635 118.56C116.421 118.201 116.243 117.831 116.056 117.465C116.319 115.905 116.428 114.269 116.442 112.577C116.454 112.014 115.671 112.024 115.672 112.496C115.656 113.791 115.629 115.092 115.506 116.362C114.74 114.692 114.088 112.987 113.136 111.373C112.527 110.337 111.913 109.363 111.487 108.264C111.251 107.668 111.028 107.101 110.56 106.621C110.445 106.505 109.937 107.283 110.066 107.487C110.095 107.529 110.117 107.567 110.143 107.605C110.154 107.618 110.166 107.625 110.182 107.63C110.928 108.474 111.071 109.621 111.626 110.552C112.298 111.686 112.999 112.799 113.56 113.978C114.137 115.189 114.739 116.401 115.334 117.616C115.204 118.445 115.039 119.262 114.773 120.05C114.581 120.619 114.332 121.164 114.049 121.694C113.883 121.328 113.72 120.962 113.556 120.606C112.969 119.335 112.319 118.072 111.659 116.811C111.877 115.366 111.969 113.858 111.989 112.305C111.993 111.738 111.219 111.754 111.212 112.222C111.199 113.388 111.171 114.551 111.077 115.701C109.835 113.337 108.603 110.971 107.716 108.529C107.501 107.93 106.795 108.62 106.965 109.084C107.987 111.907 109.416 114.688 110.858 117.448C110.728 118.24 110.567 119.019 110.31 119.772C110.141 120.275 109.914 120.751 109.673 121.222C109.304 120.637 108.939 120.05 108.585 119.446C107.937 118.361 107.462 117.227 107.025 116.079C107.316 114.461 107.425 112.76 107.445 110.997C107.447 110.432 106.674 110.444 106.669 110.913C106.655 112.181 106.63 113.453 106.514 114.701C106.277 114.064 106.041 113.431 105.78 112.802C105.125 111.236 104.302 109.17 103.088 107.864C102.91 107.675 102.35 108.473 102.622 108.766C104.223 110.485 105.159 113.354 105.91 115.408C106.029 115.739 106.161 116.054 106.285 116.374C106.158 117.086 106.002 117.788 105.771 118.468C105.556 119.107 105.274 119.718 104.946 120.304C104.564 119.327 104.185 118.35 103.792 117.381C103.48 116.604 103.132 115.839 102.792 115.076C103.057 113.513 103.163 111.875 103.182 110.18C103.185 109.621 102.41 109.631 102.409 110.096C102.394 111.35 102.366 112.603 102.254 113.831C101.707 112.657 101.129 111.493 100.52 110.327C100.153 109.628 99.768 108.782 99.3083 108.003C99.3094 107.93 99.3129 107.856 99.314 107.783C99.319 107.488 99.1076 107.354 98.9044 107.36C98.7025 107.075 98.4866 106.81 98.248 106.584C97.8806 106.253 97.5701 107.081 97.6598 107.331C97.7032 107.456 97.7384 107.534 97.8586 107.614C97.8835 107.628 97.9097 107.641 97.9361 107.645C98.1462 107.86 98.3404 108.104 98.5268 108.363C98.5017 110.035 98.4337 111.703 98.1374 113.304C97.864 112.712 97.5792 112.129 97.3254 111.53C96.8931 110.506 96.4224 109.133 95.8046 107.951C95.878 107.051 95.9193 106.134 95.9299 105.199C95.9363 104.636 95.1548 104.647 95.1497 105.116C95.1446 105.689 95.1336 106.26 95.1159 106.831C94.9875 106.658 94.8517 106.493 94.713 106.349C94.4853 106.111 93.9458 106.935 94.2467 107.248C94.5257 107.537 94.7868 107.966 95.0275 108.43C94.9207 109.885 94.7096 111.314 94.2513 112.666C94.0916 113.146 93.87 113.6 93.6437 114.051C93.1929 113.009 92.4965 111.369 92.3614 110.173C92.4268 110.019 92.4485 109.855 92.3816 109.751C92.354 109.715 92.3307 109.668 92.3001 109.628C92.0716 109.268 91.7103 110.105 91.7029 110.252C91.6993 111.479 92.3262 113.099 92.855 114.338C92.9431 114.54 93.0478 114.732 93.1463 114.93C92.7104 115.634 92.1926 116.293 91.6098 116.911C91.1307 114.767 89.9627 112.712 89.0325 110.643C89.1945 110.485 89.3512 110.304 89.5086 110.083C89.6458 109.888 89.6972 109.709 89.6969 109.554C90.2443 108.065 89.6872 105.863 88.9963 104.433C88.4818 103.374 87.7343 100.658 86.2419 100.768C85.6381 100.811 85.4286 101.498 85.2491 102.1C85.2282 102.109 84.8843 102.688 84.8453 103.136C84.7993 103.699 83.5571 103.76 82.521 103.747C82.6219 103.639 82.6894 103.526 82.6745 103.446C81.3447 97.2203 85.7297 92.5569 90.2127 89.9024ZM29.0263 131.313C29.631 129.612 30.4409 127.119 31.2814 124.513C31.7946 123.652 32.2835 122.841 32.72 122.13C31.4359 125.444 29.9752 129.117 29.0263 131.313ZM81.9062 107.107C79.4956 106.763 77.0841 106.365 74.67 106.003C72.4775 105.569 70.2728 105.148 68.1173 104.902C64.702 104.509 61.3586 104.413 57.9831 104.3C55.058 104.201 52.033 103.822 49.1419 103.906C46.4475 103.976 44.1463 104.644 42.2981 106.314C41.4522 107.08 40.769 107.997 40.1447 108.96C38.9719 110.241 38.063 111.752 37.4427 113.472C36.9169 114.377 36.2557 115.527 35.5143 116.822C35.7396 116.014 35.8985 115.445 35.9638 115.232C35.9638 115.232 35.9595 115.231 35.9574 115.236C35.9726 115.202 35.98 115.172 35.9878 115.133L35.9941 115.105C36.1035 114.476 35.4299 114.811 35.3282 115.145C35.1577 115.72 34.303 118.019 33.2397 120.789C32.6635 121.79 32.0901 122.79 31.5231 123.775C33.026 119.11 34.5631 114.317 35.1366 113.282C35.9906 111.735 36.8574 109.668 38.3126 108.648C38.3799 108.604 38.4238 108.546 38.4867 108.499C38.5282 108.515 38.5728 108.522 38.6204 108.519C38.6997 108.798 38.8387 109.038 39.0532 109.116L39.1476 109.151C39.2428 109.157 39.3181 109.123 39.368 109.059C40.1491 108.183 40.8384 107.155 41.5059 106.116C44.0337 104.408 47.2352 103.285 50.2862 103.035C52.5548 102.859 54.8623 103.467 57.1528 103.5C58.4452 103.517 73.2572 104.961 77.722 104.865C78.8988 104.841 80.0648 104.772 81.2329 104.732C81.99 104.701 82.8939 104.835 83.5791 104.599C84.2052 104.384 84.7389 104.105 85.269 103.748C85.527 103.58 85.6787 102.181 85.6835 102.164C86.0658 100.724 87.2383 102.667 87.459 103.112C88.0259 104.268 88.7132 105.517 89.0911 106.717C89.3343 107.482 89.4442 108.348 89.2817 109.085C89.0868 109.079 88.8609 109.183 88.664 109.464C88.5526 109.622 88.4047 109.726 88.2316 109.79C86.266 108.214 84.2399 107.438 81.9062 107.107ZM84.0916 110.239C84.4689 110.399 84.8486 110.557 85.2301 110.74C85.3631 110.8 85.4874 110.845 85.6142 110.899C85.5601 111.15 85.6974 111.351 85.8818 111.395C85.7989 111.691 85.8499 114.511 85.9433 116.027C84.9235 114.208 84.2488 112.264 84.0916 110.239ZM86.9536 117.637C86.4515 115.508 86.8505 113.338 86.6459 111.247C87.3043 111.401 87.8613 111.366 88.3626 111.125C89.2971 113.301 90.3589 115.349 91.0023 117.563C90.5237 118.009 90.0106 118.428 89.4613 118.82C89.1242 119.06 89.4603 119.8 89.938 119.464C90.4142 119.126 90.8415 118.768 91.2472 118.401C91.6456 119.997 92.0688 121.642 92.5726 123.262C90.4299 121.693 88.4576 119.78 86.9536 117.637ZM94.4602 124.524C94.17 124.348 93.8812 124.162 93.5973 123.97C93.3664 123.356 93.1496 122.734 92.9412 122.09C93.045 122.147 93.1785 122.154 93.3249 122.049C94.2907 121.359 95.103 120.609 95.7899 119.806C96.3353 120.988 96.7981 122.178 97.2438 123.373C97.0644 123.512 96.9048 123.668 96.7193 123.801C96.3822 124.041 96.717 124.783 97.196 124.445C97.3198 124.357 97.4282 124.267 97.5437 124.178C97.8446 124.992 98.1538 125.806 98.4804 126.618C97.1049 126.01 95.7587 125.326 94.4602 124.524ZM99.5773 127.078C99.0792 125.937 98.6522 124.784 98.2344 123.628C99.2497 122.754 100.072 121.799 100.721 120.779C101.193 121.765 101.651 122.74 102.055 123.744C101.709 124.04 101.369 124.345 100.986 124.617C100.646 124.857 100.987 125.599 101.459 125.262C101.773 125.036 102.073 124.807 102.353 124.57C102.48 124.914 102.615 125.257 102.724 125.614C103.012 126.564 103.307 127.516 103.614 128.463C103.627 128.495 103.642 128.524 103.654 128.557C102.279 128.119 100.918 127.63 99.5773 127.078ZM104.79 128.906C104.537 128.179 104.126 127.47 103.904 126.726C103.626 125.806 103.342 124.879 103.033 123.96C103.677 123.343 104.226 122.692 104.702 122.002C105.129 123.158 105.555 124.343 106.029 125.518C105.859 125.651 105.708 125.797 105.531 125.924C105.193 126.163 105.528 126.901 106.002 126.565C106.125 126.479 106.235 126.386 106.351 126.295C106.886 127.545 107.497 128.758 108.243 129.881C107.096 129.574 105.942 129.254 104.79 128.906ZM113.706 131.212C113.118 131.107 112.526 130.998 111.935 130.844C111.191 130.649 110.442 130.457 109.691 130.263C108.574 128.868 107.817 127.259 107.134 125.661C108.151 124.77 108.968 123.799 109.613 122.758C110.103 123.608 110.553 124.49 110.985 125.384C110.657 125.658 110.343 125.942 109.989 126.197C109.649 126.44 109.989 127.177 110.463 126.841C110.777 126.618 111.075 126.384 111.358 126.15C112.209 127.928 113.077 129.7 114.248 131.257C114.069 131.242 113.886 131.23 113.706 131.212ZM115.495 131.35C115.485 131.328 115.48 131.306 115.466 131.29C114.015 129.679 112.938 127.507 112.113 125.568C112.102 125.545 112.088 125.523 112.078 125.496C112.771 124.828 113.353 124.116 113.851 123.366C114.266 124.247 114.687 125.15 115.128 126.053C114.9 126.24 114.686 126.439 114.444 126.615C114.106 126.857 114.449 127.599 114.918 127.259C115.128 127.11 115.318 126.957 115.512 126.803C116.363 128.466 117.325 130.078 118.499 131.469C117.504 131.447 116.5 131.411 115.495 131.35ZM121.558 131.508C120.927 131.508 120.292 131.506 119.657 131.498C119.652 131.396 119.625 131.296 119.551 131.212C118.22 129.768 117.143 128.029 116.202 126.225C117.062 125.45 117.777 124.615 118.358 123.727C118.841 124.559 119.346 125.378 119.887 126.197C119.595 126.437 119.318 126.692 119.006 126.916C118.665 127.154 119.004 127.895 119.477 127.559C119.783 127.342 120.071 127.118 120.349 126.891C120.537 127.175 120.725 127.459 120.917 127.748C121.583 128.734 122.321 129.68 122.938 130.692C123.057 130.89 123.182 131.113 123.306 131.331C122.727 131.401 122.143 131.456 121.558 131.508ZM124.297 131.184C123.734 130.536 123.287 129.535 122.817 128.871C122.202 128.014 121.617 127.143 121.029 126.274C121.764 125.576 122.38 124.827 122.898 124.041C123.372 124.827 123.855 125.613 124.353 126.393C124.146 126.554 123.965 126.733 123.748 126.885C123.409 127.128 123.748 127.871 124.224 127.531C124.426 127.387 124.615 127.235 124.803 127.083C125.587 128.293 126.402 129.496 127.246 130.69C126.278 130.875 125.292 131.039 124.297 131.184ZM129.635 130.213C129.181 130.309 128.723 130.4 128.263 130.492C127.31 129.163 126.404 127.823 125.527 126.474C126.313 125.76 126.976 124.994 127.528 124.185C127.928 124.848 128.336 125.504 128.761 126.149C128.679 126.209 128.61 126.28 128.53 126.338C128.185 126.584 128.525 127.325 128.997 126.986C129.074 126.931 129.144 126.871 129.222 126.815C130 127.89 130.984 128.756 131.851 129.714C131.112 129.881 130.378 130.06 129.635 130.213ZM132.849 129.488C132.456 129.042 132.018 128.621 131.594 128.213C130.943 127.598 130.423 126.949 129.93 126.262C130.686 125.629 131.329 124.949 131.881 124.233C132.31 124.741 132.729 125.25 133.149 125.764C133.126 125.996 133.29 126.255 133.533 126.245C133.65 126.396 133.777 126.543 133.89 126.698C134.437 127.423 135.029 128.14 135.656 128.821C134.722 129.048 133.784 129.27 132.849 129.488ZM136.763 128.547C135.912 127.638 135.139 126.673 134.358 125.701C135.274 124.973 136.046 124.188 136.683 123.35C137.026 123.783 137.372 124.216 137.719 124.645C137.697 124.662 137.681 124.681 137.658 124.696C137.319 124.939 137.656 125.675 138.132 125.34C138.167 125.312 138.196 125.286 138.233 125.263C138.906 126.081 139.604 126.885 140.319 127.679C139.135 127.964 137.948 128.252 136.763 128.547ZM141.381 127.422C140.55 126.528 139.75 125.617 138.979 124.686C139.763 124.04 140.426 123.342 140.994 122.606C141.158 122.789 141.307 122.984 141.473 123.162C141.656 123.362 141.853 123.559 142.055 123.755C142.016 123.783 141.982 123.819 141.943 123.847C141.603 124.087 141.943 124.823 142.415 124.489C142.496 124.43 142.57 124.37 142.65 124.311C143.472 125.062 144.348 125.797 145.103 126.592C143.855 126.853 142.612 127.125 141.381 127.422ZM147.481 126.034C147.135 126.144 146.734 126.225 146.369 126.346C146.304 126.345 146.233 126.348 146.162 126.362C145.351 125.399 144.371 124.559 143.419 123.702C144.239 123.003 144.928 122.253 145.505 121.456C145.994 121.898 146.49 122.331 146.99 122.763C146.904 122.827 146.832 122.901 146.744 122.965C146.404 123.202 146.744 123.944 147.22 123.609C147.362 123.509 147.485 123.403 147.619 123.301C148.338 123.915 149.053 124.532 149.762 125.161C149.045 125.483 148.294 125.768 147.481 126.034ZM150.706 124.689C149.955 124.004 149.181 123.327 148.408 122.653C149.439 121.738 150.262 120.739 150.908 119.667C151.863 120.464 152.791 121.282 153.685 122.131C153.424 122.475 153.166 122.825 152.852 123.128C152.178 123.782 151.464 124.27 150.706 124.689Z" fill="#848C36"/>
<path d="M87.0296 99.1814C86.7683 97.4124 88.2478 95.3421 89.4674 94.4951C90.6532 93.6863 92.0262 93.1318 93.4724 92.7458C96.018 92.0728 98.6163 91.407 101.24 90.9124C106.919 89.8395 113.037 89.6843 119.122 90.4007C119.377 90.433 119.715 89.868 119.355 89.8229C111.774 88.932 104.613 89.5914 97.6921 91.2163C94.8586 91.8842 91.494 92.2825 89.2801 94.0771C87.8719 95.2178 86.1524 97.2953 86.4747 99.4431C86.5261 99.8102 87.0667 99.4273 87.0296 99.1814Z" fill="#848C36"/>
</svg>
