<svg width="844" height="726" viewBox="0 0 844 726" fill="none" xmlns="http://www.w3.org/2000/svg">
<path d="M23.0068 0C23.2721 10.5385 31.8976 19 42.5 19C53.1024 19 61.7279 10.5385 61.9932 0H77.0068C77.2721 10.5385 85.8976 19 96.5 19C107.102 19 115.728 10.5385 115.993 0H131.007C131.272 10.5385 139.898 19 150.5 19C161.102 19 169.728 10.5385 169.993 0H185.007C185.272 10.5385 193.898 19 204.5 19C215.102 19 223.728 10.5385 223.993 0H239.007C239.272 10.5385 247.898 19 258.5 19C269.102 19 277.728 10.5385 277.993 0H293.007C293.272 10.5385 301.898 19 312.5 19C323.102 19 331.728 10.5385 331.993 0H347.007C347.272 10.5385 355.898 19 366.5 19C377.102 19 385.728 10.5385 385.993 0H401.007C401.272 10.5385 409.898 19 420.5 19C431.102 19 439.728 10.5385 439.993 0H455.007C455.272 10.5385 463.898 19 474.5 19C485.102 19 493.728 10.5385 493.993 0H509.007C509.272 10.5385 517.898 19 528.5 19C539.102 19 547.728 10.5385 547.993 0H563.007C563.272 10.5385 571.898 19 582.5 19C593.102 19 601.728 10.5385 601.993 0H617.007C617.272 10.5385 625.898 19 636.5 19C647.102 19 655.728 10.5385 655.993 0H671.007C671.272 10.5385 679.898 19 690.5 19C701.102 19 709.728 10.5385 709.993 0H725.007C725.272 10.5385 733.898 19 744.5 19C755.102 19 763.728 10.5385 763.993 0H779.007C779.272 10.5385 787.898 19 798.5 19C809.102 19 817.728 10.5385 817.993 0H844V726H0V0H23.0068Z" fill="#F9F2D9"/>
</svg>
